<?xml version="1.0" encoding="utf-8"?>
<!-- Generator: Adobe Illustrator 25.2.0, SVG Export Plug-In . SVG Version: 6.00 Build 0)  -->
<svg version="1.1" id="Layer_1" xmlns="http://www.w3.org/2000/svg" xmlns:xlink="http://www.w3.org/1999/xlink" x="0px" y="0px"
	 viewBox="0 0 2000 2000" style="enable-background:new 0 0 2000 2000;" xml:space="preserve">
<style type="text/css">
	.st0{display:none;fill:#0B50B5;}
	.st1{fill:#1F57FE;}
	.st2{fill:#878787;}
	.st3{fill:#373737;}
	.st4{fill:#323232;}
	.st5{fill:#151515;}
</style>
<rect class="st0" width="2000" height="2000"/>
<g>
	<g>
		<g>
			<path d="M533.59,1261.7c1.11,1.45,1.67,3.26,1.67,5.42c0,2.97-1.14,5.27-3.43,6.89c-2.29,1.62-5.62,2.43-10,2.43h-17.06v-34.32
				h16.08c4.05,0,7.18,0.79,9.37,2.38c2.19,1.59,3.28,3.77,3.28,6.55c0,1.7-0.39,3.2-1.18,4.51c-0.79,1.31-1.86,2.32-3.24,3.04
				C530.97,1259.21,532.48,1260.25,533.59,1261.7z M511.13,1247.12v9.46h9.02c2.22,0,3.93-0.4,5.12-1.2
				c1.19-0.8,1.79-1.97,1.79-3.51c0-1.57-0.6-2.75-1.79-3.55c-1.19-0.8-2.9-1.2-5.12-1.2H511.13z M528.83,1266.48
				c0-3.3-2.47-4.95-7.4-4.95h-10.3v9.9h10.3C526.36,1271.44,528.83,1269.78,528.83,1266.48z"/>
			<path d="M569.43,1276.44l-7.01-10.05c-0.29,0.03-0.74,0.05-1.32,0.05h-7.75v10h-6.37v-34.32h14.12c2.97,0,5.57,0.49,7.77,1.47
				c2.21,0.98,3.9,2.39,5.07,4.22c1.18,1.83,1.77,4.01,1.77,6.52c0,2.58-0.63,4.81-1.89,6.67c-1.26,1.86-3.06,3.25-5.42,4.17
				l7.89,11.28H569.43z M567.13,1249.27c-1.44-1.18-3.55-1.77-6.33-1.77h-7.45v13.68h7.45c2.78,0,4.88-0.6,6.33-1.79
				c1.44-1.19,2.16-2.88,2.16-5.08C569.28,1252.13,568.56,1250.45,567.13,1249.27z"/>
			<path d="M587.72,1242.11h6.37v34.32h-6.37V1242.11z"/>
			<path d="M608.26,1242.11h15c3.66,0,6.91,0.71,9.76,2.13c2.84,1.42,5.05,3.43,6.62,6.03c1.57,2.6,2.35,5.6,2.35,9
				c0,3.4-0.78,6.4-2.35,9c-1.57,2.6-3.77,4.61-6.62,6.03c-2.84,1.42-6.1,2.13-9.76,2.13h-15V1242.11z M622.97,1271.04
				c2.52,0,4.73-0.48,6.64-1.45c1.91-0.96,3.38-2.34,4.41-4.12s1.54-3.85,1.54-6.2s-0.51-4.42-1.54-6.2s-2.5-3.15-4.41-4.12
				c-1.91-0.96-4.13-1.45-6.64-1.45h-8.34v23.54H622.97z"/>
			<path d="M677.1,1258.88h6.03v13.68c-1.76,1.41-3.82,2.48-6.18,3.24c-2.35,0.75-4.77,1.13-7.26,1.13c-3.5,0-6.65-0.76-9.46-2.28
				c-2.81-1.52-5.02-3.62-6.62-6.3c-1.6-2.68-2.4-5.7-2.4-9.07c0-3.37,0.8-6.39,2.4-9.07c1.6-2.68,3.82-4.78,6.65-6.3
				c2.83-1.52,6.01-2.28,9.54-2.28c2.87,0,5.49,0.47,7.84,1.42c2.35,0.95,4.33,2.34,5.93,4.17l-4.02,3.92
				c-2.61-2.61-5.77-3.92-9.46-3.92c-2.42,0-4.57,0.51-6.45,1.52c-1.88,1.01-3.35,2.44-4.41,4.26c-1.06,1.83-1.59,3.92-1.59,6.28
				c0,2.29,0.53,4.35,1.59,6.18c1.06,1.83,2.53,3.27,4.41,4.31c1.88,1.05,4.01,1.57,6.4,1.57c2.68,0,5.03-0.59,7.06-1.77V1258.88z"
				/>
			<path d="M696.42,1242.11h6.37v34.32h-6.37V1242.11z"/>
			<path d="M747.46,1242.11v34.32h-5.24l-18.93-23.24v23.24h-6.33v-34.32h5.25l18.92,23.24v-23.24H747.46z"/>
			<path d="M785.02,1258.88h6.03v13.68c-1.76,1.41-3.82,2.48-6.18,3.24c-2.35,0.75-4.77,1.13-7.26,1.13c-3.5,0-6.65-0.76-9.46-2.28
				c-2.81-1.52-5.02-3.62-6.62-6.3c-1.6-2.68-2.4-5.7-2.4-9.07c0-3.37,0.8-6.39,2.4-9.07c1.6-2.68,3.82-4.78,6.65-6.3
				c2.83-1.52,6.01-2.28,9.54-2.28c2.87,0,5.49,0.47,7.84,1.42c2.35,0.95,4.33,2.34,5.93,4.17l-4.02,3.92
				c-2.61-2.61-5.77-3.92-9.46-3.92c-2.42,0-4.57,0.51-6.45,1.52c-1.88,1.01-3.35,2.44-4.41,4.26c-1.06,1.83-1.59,3.92-1.59,6.28
				c0,2.29,0.53,4.35,1.59,6.18c1.06,1.83,2.53,3.27,4.41,4.31c1.88,1.05,4.01,1.57,6.4,1.57c2.68,0,5.03-0.59,7.06-1.77V1258.88z"
				/>
			<path d="M844.37,1273.47c-1.95,1.85-4.77,2.97-8.46,3.36v5.49h-4.02v-5.44c-2.42-0.16-4.71-0.6-6.87-1.32
				c-2.16-0.72-3.87-1.63-5.15-2.75l2.21-4.95c1.21,0.98,2.68,1.81,4.41,2.48c1.73,0.67,3.53,1.09,5.39,1.25v-9.81
				c-2.32-0.55-4.26-1.17-5.81-1.84s-2.85-1.65-3.9-2.94c-1.05-1.29-1.57-3-1.57-5.12c0-2.65,0.96-4.9,2.9-6.77
				c1.93-1.86,4.72-2.97,8.38-3.33v-5.54h4.02v5.44c1.83,0.1,3.62,0.41,5.37,0.93c1.75,0.52,3.28,1.21,4.59,2.06l-2.01,4.95
				c-2.48-1.44-5.13-2.32-7.94-2.65v9.9c2.35,0.56,4.3,1.16,5.86,1.81c1.55,0.65,2.86,1.63,3.92,2.92c1.06,1.29,1.59,3,1.59,5.12
				C847.28,1269.38,846.31,1271.62,844.37,1273.47z M828.21,1254.18c0.85,0.65,2.07,1.21,3.68,1.67v-8.73
				c-1.67,0.26-2.91,0.78-3.73,1.57c-0.82,0.78-1.23,1.75-1.23,2.89C826.94,1252.66,827.36,1253.52,828.21,1254.18z M839.76,1269.96
				c0.83-0.75,1.25-1.68,1.25-2.79c0-1.11-0.44-2-1.32-2.67s-2.14-1.23-3.77-1.69v8.68
				C837.64,1271.22,838.92,1270.72,839.76,1269.96z"/>
			<path d="M865.01,1274.65c-2.8-1.52-4.99-3.62-6.57-6.3c-1.59-2.68-2.38-5.7-2.38-9.07c0-3.37,0.8-6.39,2.4-9.07
				c1.6-2.68,3.8-4.78,6.6-6.3c2.79-1.52,5.93-2.28,9.39-2.28c2.81,0,5.37,0.49,7.7,1.47c2.32,0.98,4.28,2.4,5.88,4.27l-4.12,3.87
				c-2.48-2.68-5.54-4.02-9.17-4.02c-2.35,0-4.46,0.52-6.33,1.54c-1.86,1.03-3.32,2.46-4.36,4.29c-1.05,1.83-1.57,3.91-1.57,6.23
				c0,2.32,0.52,4.4,1.57,6.23c1.04,1.83,2.5,3.26,4.36,4.29c1.86,1.03,3.97,1.54,6.33,1.54c3.63,0,6.68-1.36,9.17-4.07l4.12,3.92
				c-1.6,1.86-3.57,3.28-5.91,4.27c-2.34,0.98-4.91,1.47-7.72,1.47C870.93,1276.93,867.8,1276.17,865.01,1274.65z"/>
			<path d="M899.06,1242.11h6.37v28.93h17.95v5.39h-24.32V1242.11z"/>
			<path d="M939.26,1274.65c-2.81-1.52-5.02-3.63-6.62-6.33c-1.6-2.7-2.4-5.71-2.4-9.05s0.8-6.35,2.4-9.05
				c1.6-2.7,3.81-4.81,6.62-6.33c2.81-1.52,5.97-2.28,9.46-2.28c3.5,0,6.65,0.76,9.46,2.28c2.81,1.52,5.02,3.62,6.62,6.3
				c1.6,2.68,2.4,5.7,2.4,9.07c0,3.37-0.8,6.39-2.4,9.07c-1.6,2.68-3.81,4.78-6.62,6.3c-2.81,1.52-5.97,2.28-9.46,2.28
				C945.23,1276.93,942.07,1276.17,939.26,1274.65z M954.91,1269.79c1.83-1.03,3.27-2.47,4.32-4.32c1.05-1.85,1.57-3.91,1.57-6.2
				c0-2.29-0.52-4.35-1.57-6.2c-1.05-1.85-2.48-3.28-4.32-4.32c-1.83-1.03-3.89-1.54-6.18-1.54c-2.29,0-4.35,0.52-6.18,1.54
				c-1.83,1.03-3.27,2.47-4.31,4.32c-1.05,1.85-1.57,3.92-1.57,6.2c0,2.29,0.52,4.36,1.57,6.2c1.04,1.85,2.48,3.28,4.31,4.32
				c1.83,1.03,3.89,1.54,6.18,1.54C951.01,1271.34,953.08,1270.82,954.91,1269.79z"/>
			<path d="M982.56,1272.93c-2.65-2.66-3.97-6.48-3.97-11.45v-19.37h6.37v19.12c0,6.73,2.91,10.1,8.73,10.1
				c5.79,0,8.68-3.37,8.68-10.1v-19.12h6.28v19.37c0,4.97-1.31,8.79-3.95,11.45c-2.63,2.66-6.32,4-11.06,4
				C988.9,1276.93,985.21,1275.6,982.56,1272.93z"/>
			<path d="M1028.79,1247.51h-11.37v-5.39h29.12v5.39h-11.37v28.93h-6.38V1247.51z"/>
			<path d="M1081.65,1247.51h-11.37v-5.39h29.12v5.39h-11.37v28.93h-6.38V1247.51z"/>
			<path d="M1115.19,1274.65c-2.81-1.52-5.02-3.63-6.62-6.33c-1.6-2.7-2.4-5.71-2.4-9.05s0.8-6.35,2.4-9.05
				c1.6-2.7,3.81-4.81,6.62-6.33c2.81-1.52,5.97-2.28,9.46-2.28c3.5,0,6.65,0.76,9.46,2.28c2.81,1.52,5.02,3.62,6.62,6.3
				c1.6,2.68,2.4,5.7,2.4,9.07c0,3.37-0.8,6.39-2.4,9.07c-1.6,2.68-3.81,4.78-6.62,6.3c-2.81,1.52-5.97,2.28-9.46,2.28
				C1121.15,1276.93,1118,1276.17,1115.19,1274.65z M1130.83,1269.79c1.83-1.03,3.27-2.47,4.32-4.32c1.05-1.85,1.57-3.91,1.57-6.2
				c0-2.29-0.52-4.35-1.57-6.2c-1.05-1.85-2.48-3.28-4.32-4.32c-1.83-1.03-3.89-1.54-6.18-1.54c-2.29,0-4.35,0.52-6.18,1.54
				c-1.83,1.03-3.27,2.47-4.31,4.32c-1.05,1.85-1.57,3.92-1.57,6.2c0,2.29,0.52,4.36,1.57,6.2c1.04,1.85,2.48,3.28,4.31,4.32
				c1.83,1.03,3.89,1.54,6.18,1.54C1126.94,1271.34,1129,1270.82,1130.83,1269.79z"/>
			<path d="M1198.98,1271.09v5.34h-25.74v-34.32h25.06v5.34h-18.68v8.92h16.57v5.25h-16.57v9.46H1198.98z"/>
			<path d="M1217.95,1247.51h-11.37v-5.39h29.12v5.39h-11.37v28.93h-6.38V1247.51z"/>
			<path d="M1275.91,1242.11v34.32h-6.37v-14.71h-17.75v14.71h-6.37v-34.32h6.37v14.17h17.75v-14.17H1275.91z"/>
			<path d="M1315.77,1271.09v5.34h-25.74v-34.32h25.06v5.34h-18.68v8.92h16.57v5.25h-16.57v9.46H1315.77z"/>
			<path d="M1350.24,1276.44l-7.01-10.05c-0.29,0.03-0.74,0.05-1.32,0.05h-7.75v10h-6.37v-34.32h14.12c2.97,0,5.57,0.49,7.77,1.47
				c2.21,0.98,3.9,2.39,5.07,4.22c1.18,1.83,1.77,4.01,1.77,6.52c0,2.58-0.63,4.81-1.89,6.67c-1.26,1.86-3.06,3.25-5.42,4.17
				l7.89,11.28H1350.24z M1347.94,1249.27c-1.44-1.18-3.55-1.77-6.33-1.77h-7.45v13.68h7.45c2.78,0,4.88-0.6,6.33-1.79
				c1.44-1.19,2.16-2.88,2.16-5.08C1350.09,1252.13,1349.37,1250.45,1347.94,1249.27z"/>
			<path d="M1394.27,1271.09v5.34h-25.74v-34.32h25.06v5.34h-18.68v8.92h16.57v5.25h-16.57v9.46H1394.27z"/>
			<path d="M1409.96,1272.93c-2.65-2.66-3.97-6.48-3.97-11.45v-19.37h6.37v19.12c0,6.73,2.91,10.1,8.73,10.1
				c5.79,0,8.68-3.37,8.68-10.1v-19.12h6.28v19.37c0,4.97-1.31,8.79-3.95,11.45c-2.63,2.66-6.31,4-11.06,4
				C1416.3,1276.93,1412.61,1275.6,1409.96,1272.93z"/>
			<path d="M1481.39,1276.44l-0.05-22.75l-11.28,18.83h-2.84l-11.28-18.53v22.46h-6.08v-34.32h5.25l13.63,22.75l13.38-22.75h5.25
				l0.05,34.32H1481.39z"/>
		</g>
	</g>
	<g>
		<g>
			<g>
				<g>
					<path class="st1" d="M405.68,1176.73c-8.39-4.62-14.96-11-19.72-19.13c-4.76-8.13-7.13-17.34-7.13-27.65
						c0-10.31,2.38-19.52,7.13-27.65c4.76-8.13,11.33-14.47,19.72-19.03c8.39-4.56,17.94-6.84,28.64-6.84c9.51,0,18,1.92,25.47,5.75
						c7.46,3.83,13.24,9.38,17.34,16.65l-14.47,9.31c-3.31-5.02-7.4-8.79-12.29-11.3c-4.89-2.51-10.31-3.77-16.25-3.77
						c-6.87,0-13.05,1.52-18.53,4.56c-5.48,3.04-9.78,7.37-12.88,12.98c-3.11,5.62-4.66,12.06-4.66,19.32
						c0,7.4,1.55,13.91,4.66,19.52c3.1,5.62,7.4,9.94,12.88,12.98c5.48,3.04,11.66,4.56,18.53,4.56c5.95,0,11.36-1.25,16.25-3.77
						c4.89-2.51,8.98-6.27,12.29-11.3l14.47,9.12c-4.1,7.27-9.88,12.85-17.34,16.75c-7.47,3.9-15.95,5.85-25.47,5.85
						C423.62,1183.66,414.07,1181.35,405.68,1176.73z"/>
					<path class="st1" d="M508.25,1035.41h19.03v147.06h-19.03V1035.41z"/>
					<path class="st1" d="M588.32,1176.73c-8.33-4.62-14.83-11-19.52-19.13c-4.69-8.13-7.04-17.34-7.04-27.65
						c0-10.31,0.9-19.97,5.6-28.1c4.69-8.13,11.2-14.47,19.52-19.03c8.32-4.56,17.71-6.84,28.14-6.84c10.44,0,19.78,2.28,28.04,6.84
						c8.26,4.56,16.17,11.35,20.86,19.47c4.69,8.13,7.04,17.34,7.04,27.65c0,10.31-2.35,19.52-7.04,27.65
						c-4.69,8.13-11.17,14.5-19.42,19.13c-8.26,4.63-17.61,6.94-28.04,6.94C606.02,1183.66,596.64,1181.35,588.32,1176.73z
						 M634.6,1162.36c5.35-3.1,9.54-7.46,12.58-13.08c3.04-5.61,4.56-12.06,4.56-19.32c0-7.27-2.96-14.15-6-19.77
						c-3.04-5.61-7.23-9.94-12.58-12.98c-5.35-3.04-11.4-4.56-18.13-4.56s-12.78,1.52-18.14,4.56c-5.35,3.04-9.58,7.37-12.68,12.98
						c-3.11,5.62-3.22,12.51-3.22,19.77c0,7.27,1.55,13.71,4.66,19.32c3.1,5.62,7.33,9.98,12.68,13.08
						c5.35,3.11,11.4,4.66,18.14,4.66C623.2,1167.02,629.25,1165.46,634.6,1162.36z"/>
					<path class="st1" d="M803.17,1077.43v105.05h-18.04v-15.86c-3.84,5.42-8.89,9.61-15.16,12.59c-6.28,2.97-13.11,4.46-20.51,4.46
						c-14.01,0-25.04-3.86-33.1-11.59c-8.06-7.73-12.09-19.13-12.09-34.19v-60.45h19.03v58.27c0,10.18,2.44,17.87,7.33,23.09
						c4.89,5.22,11.89,7.83,21.01,7.83c10.04,0,17.97-3.04,23.78-9.12c5.81-6.08,8.72-14.67,8.72-25.77v-54.31H803.17z"/>
					<path class="st1" d="M906.43,1176.33c-2.77,2.38-6.21,4.2-10.31,5.45s-8.32,1.88-12.68,1.88c-10.57,0-18.76-2.84-24.58-8.52
						c-5.82-5.68-8.72-13.81-8.72-24.38v-57.68H832.3v-15.66h17.84v-22.99h19.03v22.99h30.13v15.66h-30.13v56.88
						c0,5.68,1.42,10.04,4.26,13.08c2.84,3.04,6.9,4.56,12.19,4.56c5.81,0,10.77-1.65,14.87-4.95L906.43,1176.33z"/>
					<path class="st1" d="M1027.38,1083.18c8.06,4.49,14.37,10.77,18.93,18.83c4.56,8.06,6.84,17.38,6.84,27.95
						c0,10.57-2.28,19.92-6.84,28.05c-4.56,8.13-10.87,14.44-18.93,18.93c-8.06,4.49-17.18,6.74-27.35,6.74
						c-7.8,0-14.93-1.52-21.41-4.56c-6.47-3.04-11.82-7.46-16.05-13.28v16.65h-18.23v-147.06h19.03v57.87
						c4.23-5.55,9.51-9.74,15.86-12.59c6.34-2.84,13.28-4.26,20.81-4.26C1010.2,1076.44,1019.32,1078.69,1027.38,1083.18z
						 M1016.58,1162.36c5.35-3.1,9.58-7.46,12.69-13.08c3.1-5.61,4.66-12.06,4.66-19.32c0-7.27-1.55-13.71-4.66-19.32
						c-3.11-5.61-7.33-9.94-12.69-12.98c-5.35-3.04-11.4-4.56-18.13-4.56c-6.61,0-12.62,1.52-18.04,4.56
						c-5.42,3.04-9.65,7.37-12.69,12.98c-3.04,5.62-4.56,12.06-4.56,19.32c0,7.27,1.52,13.71,4.56,19.32
						c3.04,5.62,7.27,9.98,12.69,13.08c5.42,3.11,11.43,4.66,18.04,4.66C1005.18,1167.02,1011.23,1165.46,1016.58,1162.36z"/>
					<path class="st1" d="M1120.34,1081.2c6.47-3.17,14.33-4.76,23.59-4.76v18.43c-1.06-0.13-2.51-0.2-4.36-0.2
						c-10.3,0-18.4,3.07-24.28,9.22c-5.88,6.14-8.82,14.9-8.82,26.26v52.32h-19.03v-105.05h18.23v17.64
						C1108.97,1088.99,1113.86,1084.37,1120.34,1081.2z"/>
					<path class="st1" d="M1175.53,1053.65c-2.44-2.38-3.67-5.28-3.67-8.72c0-3.43,1.22-6.37,3.67-8.82
						c2.44-2.44,5.52-3.67,9.22-3.67c3.7,0,6.77,1.16,9.22,3.47c2.44,2.31,3.67,5.19,3.67,8.62c0,3.57-1.22,6.57-3.67,9.02
						c-2.45,2.45-5.52,3.67-9.22,3.67C1181.05,1057.21,1177.98,1056.02,1175.53,1053.65z M1175.23,1077.43h19.03v105.05h-19.03
						V1077.43z"/>
					<path class="st1" d="M1337.56,1035.41v147.06h-18.23v-16.65c-4.23,5.82-9.58,10.24-16.06,13.28
						c-6.47,3.04-13.61,4.56-21.41,4.56c-10.17,0-19.29-2.24-27.35-6.74c-8.06-4.49-14.37-10.8-18.93-18.93
						c-4.56-8.13-6.84-17.47-6.84-28.05c0-10.57,2.28-19.89,6.84-27.95c4.56-8.06,10.87-14.33,18.93-18.83
						c8.06-4.49,17.18-6.74,27.35-6.74c7.53,0,14.47,1.42,20.81,4.26c6.34,2.84,11.63,7.04,15.86,12.59v-57.87H1337.56z
						 M1301.49,1162.36c5.42-3.1,9.64-7.46,12.68-13.08c3.04-5.61,4.56-12.06,4.56-19.32c0-7.27-1.52-13.71-4.56-19.32
						c-3.04-5.61-7.27-9.94-12.68-12.98c-5.42-3.04-11.43-4.56-18.04-4.56c-6.74,0-12.78,1.52-18.14,4.56
						c-5.35,3.04-9.58,7.37-12.68,12.98c-3.11,5.62-4.66,12.06-4.66,19.32c0,7.27,1.55,13.71,4.66,19.32
						c3.1,5.62,7.33,9.98,12.68,13.08c5.35,3.11,11.4,4.66,18.14,4.66C1290.06,1167.02,1296.07,1165.46,1301.49,1162.36z"/>
					<path class="st1" d="M1482.04,1077.43v90.77c0,18.36-4.56,31.94-13.67,40.73c-9.12,8.79-22.73,13.18-40.83,13.18
						c-9.91,0-19.36-1.36-28.34-4.06c-8.99-2.71-16.25-6.57-21.8-11.6l9.12-14.67c4.88,4.23,10.93,7.56,18.13,10.01
						c7.2,2.44,14.63,3.67,22.3,3.67c12.29,0,21.37-2.91,27.25-8.72c5.88-5.82,8.82-14.67,8.82-26.56v-8.32
						c-4.49,5.42-10.01,9.48-16.55,12.19c-6.54,2.71-13.65,4.06-21.31,4.06c-10.04,0-19.12-2.15-27.25-6.44
						c-8.13-4.29-14.5-10.31-19.13-18.04c-4.62-7.73-6.93-16.55-6.93-26.46c0-9.91,2.31-18.73,6.93-26.46s11-13.71,19.13-17.94
						c8.13-4.23,17.21-6.34,27.25-6.34c7.93,0,15.29,1.46,22.1,4.36c6.8,2.91,12.39,7.2,16.75,12.88v-16.25H1482.04z
						 M1445.87,1157.1c5.48-2.9,9.78-6.97,12.88-12.19c3.1-5.22,4.66-11.13,4.66-17.74c0-10.17-3.37-18.4-10.11-24.68
						c-6.74-6.28-15.4-9.42-25.96-9.42c-10.7,0-19.42,3.14-26.16,9.42c-6.74,6.28-10.11,14.5-10.11,24.68
						c0,6.61,1.55,12.52,4.66,17.74c3.1,5.22,7.4,9.28,12.88,12.19c5.48,2.91,11.73,4.36,18.73,4.36
						C1434.21,1161.46,1440.39,1160.01,1445.87,1157.1z"/>
					<path class="st1" d="M1620.78,1136.29h-85.23c1.19,9.25,5.25,16.68,12.19,22.3c6.94,5.62,15.56,8.42,25.87,8.42
						c12.55,0,22.66-4.23,30.32-12.69l10.5,12.29c-4.75,5.55-10.67,9.78-17.74,12.69c-7.07,2.91-14.97,4.36-23.69,4.36
						c-11.1,0-20.94-2.28-29.53-6.84c-8.59-4.56-15.23-10.93-19.92-19.13c-4.69-8.19-7.04-17.44-7.04-27.75
						c0-10.17,2.28-19.36,6.84-27.55c4.56-8.19,10.83-14.57,18.83-19.13s17.01-6.84,27.06-6.84c10.04,0,18.99,2.28,26.85,6.84
						c7.86,4.56,14,10.93,18.43,19.13c4.42,8.19,6.64,17.57,6.64,28.14C1621.18,1132,1621.04,1133.92,1620.78,1136.29z
						 M1546.36,1100.82c-6.14,5.55-9.75,12.82-10.8,21.8h67.39c-1.06-8.85-4.66-16.09-10.8-21.7c-6.15-5.61-13.78-8.42-22.89-8.42
						C1560.13,1092.49,1552.5,1095.27,1546.36,1100.82z"/>
				</g>
			</g>
		</g>
		<g>
			<g>
				<path class="st1" d="M682.22,957.43C734.08,829.75,859.7,743.47,1000,743.47c55.66,0,109.01,13.59,156.37,37.94
					c-56.2-41.93-129.4-68.72-200.23-62.95c-66.62,5.42-130.06,32.67-182.77,73.28c-55.3,42.61-97.88,100.66-122.03,165.69H682.22z"
					/>
				<path class="st1" d="M1117.95,742.91c0.08,0.05,0.22,0.13,0.43,0.22c3.1,1.63,6.21,3.34,9.33,5.14l0.02-0.02
					c22.74,12.96,80.12,49.04,123.07,104.49c4.79,5.11,9.41,10.37,13.88,15.78c21.85,26.43,39.86,56.32,53.09,88.9h30.89
					c-24.15-65.03-66.72-123.08-122.03-165.69c-28.78-22.17-60.06-39.76-93.11-52.48c-2.98-1.15-5.97-2.26-8.98-3.33
					c-20.1-7.15-40.84-12.53-62.03-16.1c17.69,5.49,36.3,12.96,55.36,23.05C1117.9,742.88,1117.93,742.89,1117.95,742.91z"/>
				<path class="st1" d="M747.58,957.43c51.29-90.89,148.91-150.1,256.6-150.1c47.79,0,93.59,11.67,134.24,32.57
					c-8.43-4.33-16.06-11.34-24.28-16.24c-8.68-5.17-17.63-9.88-26.82-14.08c-18.27-8.35-37.46-14.7-57.14-18.74
					c-40.64-8.34-82.79-6.29-122.39,6.11c-35.46,11.1-68.77,29.16-98.17,51.8c-37.72,29.07-68.55,66.5-90.02,108.67H747.58z"/>
				<path class="st1" d="M1105.44,806.85c0.07,0.04,0.19,0.11,0.37,0.19c2.67,1.4,5.33,2.87,8.01,4.41l0.01-0.01
					c19.52,11.13,68.78,42.1,105.66,89.71c4.11,4.38,8.08,8.9,11.91,13.55c10.98,13.28,20.82,27.57,29.38,42.74h27.98
					c-21.47-42.16-52.3-79.6-90.02-108.67c-24.7-19.03-51.56-34.13-79.94-45.05c-2.56-0.99-5.12-1.94-7.71-2.86
					c-17.26-6.14-35.06-10.76-53.25-13.82c15.18,4.71,31.16,11.13,47.53,19.79C1105.4,806.82,1105.43,806.83,1105.44,806.85z"/>
			</g>
			<path d="M730.35,1016.8l-16.45-8.5l16.38-19.75l0.2-0.12c0.65-0.4,1.04-1.12,1.02-1.88c-0.03-0.76-0.46-1.46-1.15-1.81
				l-30.32-15.67c-0.61-0.31-1.33-0.31-1.94,0l-30.32,15.67c-0.68,0.35-1.12,1.05-1.14,1.81c-0.03,0.76,0.36,1.49,1.02,1.89
				l0.2,0.12l16.38,19.75l-16.45,8.5c-0.68,0.35-1.12,1.04-1.15,1.81c-0.03,0.76,0.36,1.48,1.02,1.88l0.19,0.12l29.59,35.68
				c0.4,0.48,1,0.76,1.63,0.76c0.63,0,1.23-0.28,1.63-0.76l29.59-35.68l0.19-0.12c0.65-0.4,1.04-1.12,1.02-1.88
				C731.47,1017.84,731.03,1017.15,730.35,1016.8z M678.9,995.25l19.06,11.54c0.33,0.2,0.71,0.31,1.1,0.31s0.77-0.11,1.1-0.31
				l19.06-11.54l-20.16,24.3L678.9,995.25z M699.06,1002.49l-25.98-15.73l25.98-13.43l25.98,13.43L699.06,1002.49z M697.42,1024.22
				c0.4,0.49,1,0.77,1.63,0.77c0.63,0,1.23-0.28,1.63-0.77l10.44-12.58l13.92,7.19l-25.98,15.73l-25.98-15.73l13.92-7.19
				L697.42,1024.22z M697.96,1038.85c0.33,0.2,0.71,0.31,1.1,0.31c0.39,0,0.77-0.11,1.1-0.31l19.06-11.54l-20.16,24.3l-20.16-24.3
				L697.96,1038.85z"/>
			<g>
				<polygon class="st2" points="1304.09,967.53 1276.9,1012.5 1304.09,1000.41 				"/>
				<polygon class="st3" points="1276.9,1012.5 1304.09,1028.73 1304.09,1000.41 				"/>
				<polygon class="st4" points="1304.09,967.53 1331.29,1012.5 1304.09,1000.41 				"/>
				<polygon class="st5" points="1331.29,1012.5 1304.09,1028.73 1304.09,1000.41 				"/>
				<polygon class="st2" points="1304.09,1033.74 1304.09,1055.75 1277.33,1018.03 				"/>
				<polygon class="st4" points="1304.09,1033.74 1304.09,1055.75 1330.85,1018.03 				"/>
			</g>
		</g>
	</g>
</g>
</svg>
