<?xml version="1.0" encoding="UTF-8" standalone="no"?>
<svg
   xmlns:dc="http://purl.org/dc/elements/1.1/"
   xmlns:cc="http://creativecommons.org/ns#"
   xmlns:rdf="http://www.w3.org/1999/02/22-rdf-syntax-ns#"
   xmlns:svg="http://www.w3.org/2000/svg"
   xmlns="http://www.w3.org/2000/svg"
   xmlns:sodipodi="http://sodipodi.sourceforge.net/DTD/sodipodi-0.dtd"
   xmlns:inkscape="http://www.inkscape.org/namespaces/inkscape"
   version="1.1"
   id="Layer_1"
   x="0px"
   y="0px"
   viewBox="0 0 312 125"
   xml:space="preserve"
   sodipodi:docname="LogoTopbarIcon.svg"
   inkscape:version="1.0.1 (3bc2e813f5, 2020-09-07)"
   inkscape:export-filename="E:\clout-bridge-webpage\src\logos\LogoSource\Logo2StretchReformat.png"
   inkscape:export-xdpi="48.4557"
   inkscape:export-ydpi="48.4557"
   width="312"
   height="125"><metadata
   id="metadata123"><rdf:RDF><cc:Work
       rdf:about=""><dc:format>image/svg+xml</dc:format><dc:type
         rdf:resource="http://purl.org/dc/dcmitype/StillImage" /><dc:title></dc:title></cc:Work></rdf:RDF></metadata><defs
   id="defs121" /><sodipodi:namedview
   pagecolor="#ffffff"
   bordercolor="#666666"
   borderopacity="1"
   objecttolerance="10"
   gridtolerance="10"
   guidetolerance="10"
   inkscape:pageopacity="0"
   inkscape:pageshadow="2"
   inkscape:window-width="1858"
   inkscape:window-height="1057"
   id="namedview119"
   showgrid="false"
   inkscape:zoom="2.5173001"
   inkscape:cx="150.66188"
   inkscape:cy="117.61475"
   inkscape:window-x="54"
   inkscape:window-y="2"
   inkscape:window-maximized="1"
   inkscape:current-layer="g1028" />
<style
   type="text/css"
   id="style2">
	.st0{display:none;fill:#0B50B5;}
	.st1{fill:#1F57FE;}
	.st2{fill:#878787;}
	.st3{fill:#373737;}
	.st4{fill:#323232;}
	.st5{fill:#151515;}
</style>
<rect
   y="0"
   class="st0"
   width="2000"
   height="2000"
   id="rect4"
   x="0" />
<g
   id="g116">
	
	<g
   id="g114">
		
		<g
   id="g1028"
   transform="translate(0,-153.89527)"><g
     id="g56"
     transform="translate(0,-418)">
		
	</g><g
     id="g1058"
     transform="matrix(0.2430188,0,0,0.2430188,-91.170465,81.788305)"><g
       id="g84"
       transform="matrix(1.0275092,0,0,1,-10.42131,-414)">
			<g
   id="g82">
				<g
   id="g80">
					<path
   d="m 405.68,1176.73 c -8.39,-4.62 -14.96,-11 -19.72,-19.13 -4.76,-8.13 -7.13,-17.34 -7.13,-27.65 0,-10.31 2.38,-19.52 7.13,-27.65 4.76,-8.13 11.33,-14.47 19.72,-19.03 8.39,-4.56 17.94,-6.84 28.64,-6.84 9.51,0 18,1.92 25.47,5.75 7.46,3.83 13.24,9.38 17.34,16.65 l -14.47,9.31 c -3.31,-5.02 -7.4,-8.79 -12.29,-11.3 -4.89,-2.51 -10.31,-3.77 -16.25,-3.77 -6.87,0 -13.05,1.52 -18.53,4.56 -5.48,3.04 -9.78,7.37 -12.88,12.98 -3.11,5.62 -4.66,12.06 -4.66,19.32 0,7.4 1.55,13.91 4.66,19.52 3.1,5.62 7.4,9.94 12.88,12.98 5.48,3.04 11.66,4.56 18.53,4.56 5.95,0 11.36,-1.25 16.25,-3.77 4.89,-2.51 8.98,-6.27 12.29,-11.3 l 14.47,9.12 c -4.1,7.27 -9.88,12.85 -17.34,16.75 -7.47,3.9 -15.95,5.85 -25.47,5.85 -10.7,0.02 -20.25,-2.29 -28.64,-6.91 z"
   id="path58" />
					<path
   d="m 508.25,1035.41 h 19.03 v 147.06 h -19.03 z"
   id="path60" />
					<path
   d="m 588.32,1176.73 c -8.33,-4.62 -14.83,-11 -19.52,-19.13 -4.69,-8.13 -7.04,-17.34 -7.04,-27.65 0,-10.31 0.9,-19.97 5.6,-28.1 4.69,-8.13 11.2,-14.47 19.52,-19.03 8.32,-4.56 17.71,-6.84 28.14,-6.84 10.44,0 19.78,2.28 28.04,6.84 8.26,4.56 16.17,11.35 20.86,19.47 4.69,8.13 7.04,17.34 7.04,27.65 0,10.31 -2.35,19.52 -7.04,27.65 -4.69,8.13 -11.17,14.5 -19.42,19.13 -8.26,4.63 -17.61,6.94 -28.04,6.94 -10.44,0 -19.82,-2.31 -28.14,-6.93 z m 46.28,-14.37 c 5.35,-3.1 9.54,-7.46 12.58,-13.08 3.04,-5.61 4.56,-12.06 4.56,-19.32 0,-7.27 -2.96,-14.15 -6,-19.77 -3.04,-5.61 -7.23,-9.94 -12.58,-12.98 -5.35,-3.04 -11.4,-4.56 -18.13,-4.56 -6.73,0 -12.78,1.52 -18.14,4.56 -5.35,3.04 -9.58,7.37 -12.68,12.98 -3.11,5.62 -3.22,12.51 -3.22,19.77 0,7.27 1.55,13.71 4.66,19.32 3.1,5.62 7.33,9.98 12.68,13.08 5.35,3.11 11.4,4.66 18.14,4.66 6.73,0 12.78,-1.56 18.13,-4.66 z"
   id="path62" />
					<path
   d="m 803.17,1077.43 v 105.05 h -18.04 v -15.86 c -3.84,5.42 -8.89,9.61 -15.16,12.59 -6.28,2.97 -13.11,4.46 -20.51,4.46 -14.01,0 -25.04,-3.86 -33.1,-11.59 -8.06,-7.73 -12.09,-19.13 -12.09,-34.19 v -60.45 h 19.03 v 58.27 c 0,10.18 2.44,17.87 7.33,23.09 4.89,5.22 11.89,7.83 21.01,7.83 10.04,0 17.97,-3.04 23.78,-9.12 5.81,-6.08 8.72,-14.67 8.72,-25.77 v -54.31 z"
   id="path64" />
					<path
   d="m 906.43,1176.33 c -2.77,2.38 -6.21,4.2 -10.31,5.45 -4.1,1.25 -8.32,1.88 -12.68,1.88 -10.57,0 -18.76,-2.84 -24.58,-8.52 -5.82,-5.68 -8.72,-13.81 -8.72,-24.38 v -57.68 H 832.3 v -15.66 h 17.84 v -22.99 h 19.03 v 22.99 h 30.13 v 15.66 h -30.13 v 56.88 c 0,5.68 1.42,10.04 4.26,13.08 2.84,3.04 6.9,4.56 12.19,4.56 5.81,0 10.77,-1.65 14.87,-4.95 z"
   id="path66" />
					<path
   d="m 1027.38,1083.18 c 8.06,4.49 14.37,10.77 18.93,18.83 4.56,8.06 6.84,17.38 6.84,27.95 0,10.57 -2.28,19.92 -6.84,28.05 -4.56,8.13 -10.87,14.44 -18.93,18.93 -8.06,4.49 -17.18,6.74 -27.35,6.74 -7.8,0 -14.93,-1.52 -21.41,-4.56 -6.47,-3.04 -11.82,-7.46 -16.05,-13.28 v 16.65 h -18.23 v -147.06 h 19.03 v 57.87 c 4.23,-5.55 9.51,-9.74 15.86,-12.59 6.34,-2.84 13.28,-4.26 20.81,-4.26 10.16,-0.01 19.28,2.24 27.34,6.73 z m -10.8,79.18 c 5.35,-3.1 9.58,-7.46 12.69,-13.08 3.1,-5.61 4.66,-12.06 4.66,-19.32 0,-7.27 -1.55,-13.71 -4.66,-19.32 -3.11,-5.61 -7.33,-9.94 -12.69,-12.98 -5.35,-3.04 -11.4,-4.56 -18.13,-4.56 -6.61,0 -12.62,1.52 -18.04,4.56 -5.42,3.04 -9.65,7.37 -12.69,12.98 -3.04,5.62 -4.56,12.06 -4.56,19.32 0,7.27 1.52,13.71 4.56,19.32 3.04,5.62 7.27,9.98 12.69,13.08 5.42,3.11 11.43,4.66 18.04,4.66 6.73,0 12.78,-1.56 18.13,-4.66 z"
   id="path68" />
					<path
   d="m 1120.34,1081.2 c 6.47,-3.17 14.33,-4.76 23.59,-4.76 v 18.43 c -1.06,-0.13 -2.51,-0.2 -4.36,-0.2 -10.3,0 -18.4,3.07 -24.28,9.22 -5.88,6.14 -8.82,14.9 -8.82,26.26 v 52.32 h -19.03 v -105.05 h 18.23 v 17.64 c 3.3,-6.07 8.19,-10.69 14.67,-13.86 z"
   id="path70" />
					<path
   d="m 1175.53,1053.65 c -2.44,-2.38 -3.67,-5.28 -3.67,-8.72 0,-3.43 1.22,-6.37 3.67,-8.82 2.44,-2.44 5.52,-3.67 9.22,-3.67 3.7,0 6.77,1.16 9.22,3.47 2.44,2.31 3.67,5.19 3.67,8.62 0,3.57 -1.22,6.57 -3.67,9.02 -2.45,2.45 -5.52,3.67 -9.22,3.67 -3.7,-0.01 -6.77,-1.2 -9.22,-3.57 z m -0.3,23.78 h 19.03 v 105.05 h -19.03 z"
   id="path72" />
					<path
   d="m 1337.56,1035.41 v 147.06 h -18.23 v -16.65 c -4.23,5.82 -9.58,10.24 -16.06,13.28 -6.47,3.04 -13.61,4.56 -21.41,4.56 -10.17,0 -19.29,-2.24 -27.35,-6.74 -8.06,-4.49 -14.37,-10.8 -18.93,-18.93 -4.56,-8.13 -6.84,-17.47 -6.84,-28.05 0,-10.57 2.28,-19.89 6.84,-27.95 4.56,-8.06 10.87,-14.33 18.93,-18.83 8.06,-4.49 17.18,-6.74 27.35,-6.74 7.53,0 14.47,1.42 20.81,4.26 6.34,2.84 11.63,7.04 15.86,12.59 v -57.87 h 19.03 z m -36.07,126.95 c 5.42,-3.1 9.64,-7.46 12.68,-13.08 3.04,-5.61 4.56,-12.06 4.56,-19.32 0,-7.27 -1.52,-13.71 -4.56,-19.32 -3.04,-5.61 -7.27,-9.94 -12.68,-12.98 -5.42,-3.04 -11.43,-4.56 -18.04,-4.56 -6.74,0 -12.78,1.52 -18.14,4.56 -5.35,3.04 -9.58,7.37 -12.68,12.98 -3.11,5.62 -4.66,12.06 -4.66,19.32 0,7.27 1.55,13.71 4.66,19.32 3.1,5.62 7.33,9.98 12.68,13.08 5.35,3.11 11.4,4.66 18.14,4.66 6.61,0 12.62,-1.56 18.04,-4.66 z"
   id="path74" />
					<path
   d="m 1482.04,1077.43 v 90.77 c 0,18.36 -4.56,31.94 -13.67,40.73 -9.12,8.79 -22.73,13.18 -40.83,13.18 -9.91,0 -19.36,-1.36 -28.34,-4.06 -8.99,-2.71 -16.25,-6.57 -21.8,-11.6 l 9.12,-14.67 c 4.88,4.23 10.93,7.56 18.13,10.01 7.2,2.44 14.63,3.67 22.3,3.67 12.29,0 21.37,-2.91 27.25,-8.72 5.88,-5.82 8.82,-14.67 8.82,-26.56 v -8.32 c -4.49,5.42 -10.01,9.48 -16.55,12.19 -6.54,2.71 -13.65,4.06 -21.31,4.06 -10.04,0 -19.12,-2.15 -27.25,-6.44 -8.13,-4.29 -14.5,-10.31 -19.13,-18.04 -4.62,-7.73 -6.93,-16.55 -6.93,-26.46 0,-9.91 2.31,-18.73 6.93,-26.46 4.62,-7.73 11,-13.71 19.13,-17.94 8.13,-4.23 17.21,-6.34 27.25,-6.34 7.93,0 15.29,1.46 22.1,4.36 6.8,2.91 12.39,7.2 16.75,12.88 v -16.25 h 18.03 z m -36.17,79.67 c 5.48,-2.9 9.78,-6.97 12.88,-12.19 3.1,-5.22 4.66,-11.13 4.66,-17.74 0,-10.17 -3.37,-18.4 -10.11,-24.68 -6.74,-6.28 -15.4,-9.42 -25.96,-9.42 -10.7,0 -19.42,3.14 -26.16,9.42 -6.74,6.28 -10.11,14.5 -10.11,24.68 0,6.61 1.55,12.52 4.66,17.74 3.1,5.22 7.4,9.28 12.88,12.19 5.48,2.91 11.73,4.36 18.73,4.36 6.87,0 13.05,-1.45 18.53,-4.36 z"
   id="path76" />
					<path
   d="m 1620.78,1136.29 h -85.23 c 1.19,9.25 5.25,16.68 12.19,22.3 6.94,5.62 15.56,8.42 25.87,8.42 12.55,0 22.66,-4.23 30.32,-12.69 l 10.5,12.29 c -4.75,5.55 -10.67,9.78 -17.74,12.69 -7.07,2.91 -14.97,4.36 -23.69,4.36 -11.1,0 -20.94,-2.28 -29.53,-6.84 -8.59,-4.56 -15.23,-10.93 -19.92,-19.13 -4.69,-8.19 -7.04,-17.44 -7.04,-27.75 0,-10.17 2.28,-19.36 6.84,-27.55 4.56,-8.19 10.83,-14.57 18.83,-19.13 8,-4.56 17.01,-6.84 27.06,-6.84 10.04,0 18.99,2.28 26.85,6.84 7.86,4.56 14,10.93 18.43,19.13 4.42,8.19 6.64,17.57 6.64,28.14 0.02,1.47 -0.12,3.39 -0.38,5.76 z m -74.42,-35.47 c -6.14,5.55 -9.75,12.82 -10.8,21.8 h 67.39 c -1.06,-8.85 -4.66,-16.09 -10.8,-21.7 -6.15,-5.61 -13.78,-8.42 -22.89,-8.42 -9.13,-0.01 -16.76,2.77 -22.9,8.32 z"
   id="path78" />
				</g>
			</g>
		</g><g
       id="g112"
       transform="translate(0,-418)">
			<g
   id="g94">
				<path
   d="M 682.22,957.43 C 734.08,829.75 859.7,743.47 1000,743.47 c 55.66,0 109.01,13.59 156.37,37.94 -56.2,-41.93 -129.4,-68.72 -200.23,-62.95 -66.62,5.42 -130.06,32.67 -182.77,73.28 -55.3,42.61 -97.88,100.66 -122.03,165.69 z"
   id="path86" />
				<path
   d="m 1117.95,742.91 c 0.08,0.05 0.22,0.13 0.43,0.22 3.1,1.63 6.21,3.34 9.33,5.14 l 0.02,-0.02 c 22.74,12.96 80.12,49.04 123.07,104.49 4.79,5.11 9.41,10.37 13.88,15.78 21.85,26.43 39.86,56.32 53.09,88.9 h 30.89 c -24.15,-65.03 -66.72,-123.08 -122.03,-165.69 -28.78,-22.17 -60.06,-39.76 -93.11,-52.48 -2.98,-1.15 -5.97,-2.26 -8.98,-3.33 -20.1,-7.15 -40.84,-12.53 -62.03,-16.1 17.69,5.49 36.3,12.96 55.36,23.05 0.03,0.01 0.06,0.02 0.08,0.04 z"
   id="path88" />
				<path
   d="m 747.58,957.43 c 51.29,-90.89 148.91,-150.1 256.6,-150.1 47.79,0 93.59,11.67 134.24,32.57 -8.43,-4.33 -16.06,-11.34 -24.28,-16.24 -8.68,-5.17 -17.63,-9.88 -26.82,-14.08 -18.27,-8.35 -37.46,-14.7 -57.14,-18.74 -40.64,-8.34 -82.79,-6.29 -122.39,6.11 -35.46,11.1 -68.77,29.16 -98.17,51.8 -37.72,29.07 -68.55,66.5 -90.02,108.67 h 27.98 z"
   id="path90" />
				<path
   d="m 1105.44,806.85 c 0.07,0.04 0.19,0.11 0.37,0.19 2.67,1.4 5.33,2.87 8.01,4.41 l 0.01,-0.01 c 19.52,11.13 68.78,42.1 105.66,89.71 4.11,4.38 8.08,8.9 11.91,13.55 10.98,13.28 20.82,27.57 29.38,42.74 h 27.98 c -21.47,-42.16 -52.3,-79.6 -90.02,-108.67 -24.7,-19.03 -51.56,-34.13 -79.94,-45.05 -2.56,-0.99 -5.12,-1.94 -7.71,-2.86 -17.26,-6.14 -35.06,-10.76 -53.25,-13.82 15.18,4.71 31.16,11.13 47.53,19.79 0.03,-0.01 0.06,0 0.07,0.02 z"
   id="path92" />
			</g>
			<path
   d="m 730.35,1016.8 -16.45,-8.5 16.38,-19.75 0.2,-0.12 c 0.65,-0.4 1.04,-1.12 1.02,-1.88 -0.03,-0.76 -0.46,-1.46 -1.15,-1.81 l -30.32,-15.67 c -0.61,-0.31 -1.33,-0.31 -1.94,0 l -30.32,15.67 c -0.68,0.35 -1.12,1.05 -1.14,1.81 -0.03,0.76 0.36,1.49 1.02,1.89 l 0.2,0.12 16.38,19.75 -16.45,8.5 c -0.68,0.35 -1.12,1.04 -1.15,1.81 -0.03,0.76 0.36,1.48 1.02,1.88 l 0.19,0.12 29.59,35.68 c 0.4,0.48 1,0.76 1.63,0.76 0.63,0 1.23,-0.28 1.63,-0.76 l 29.59,-35.68 0.19,-0.12 c 0.65,-0.4 1.04,-1.12 1.02,-1.88 -0.02,-0.78 -0.46,-1.47 -1.14,-1.82 z m -51.45,-21.55 19.06,11.54 c 0.33,0.2 0.71,0.31 1.1,0.31 0.39,0 0.77,-0.11 1.1,-0.31 l 19.06,-11.54 -20.16,24.3 z m 20.16,7.24 -25.98,-15.73 25.98,-13.43 25.98,13.43 z m -1.64,21.73 c 0.4,0.49 1,0.77 1.63,0.77 0.63,0 1.23,-0.28 1.63,-0.77 l 10.44,-12.58 13.92,7.19 -25.98,15.73 -25.98,-15.73 13.92,-7.19 z m 0.54,14.63 c 0.33,0.2 0.71,0.31 1.1,0.31 0.39,0 0.77,-0.11 1.1,-0.31 l 19.06,-11.54 -20.16,24.3 -20.16,-24.3 z"
   id="path96" />
			<g
   id="g110">
				<polygon
   points="1276.9,1012.5 1304.09,1000.41 1304.09,967.53 "
   id="polygon98" />
				<polygon
   points="1304.09,1028.73 1304.09,1000.41 1276.9,1012.5 "
   id="polygon100" />
				<polygon
   points="1331.29,1012.5 1304.09,1000.41 1304.09,967.53 "
   id="polygon102" />
				<polygon
   points="1304.09,1028.73 1304.09,1000.41 1331.29,1012.5 "
   id="polygon104" />
				<polygon
   points="1304.09,1055.75 1277.33,1018.03 1304.09,1033.74 "
   id="polygon106" />
				<polygon
   points="1304.09,1055.75 1330.85,1018.03 1304.09,1033.74 "
   id="polygon108" />
			</g>
		</g></g></g>
	</g>
</g>
</svg>
