<?xml version="1.0" encoding="UTF-8" standalone="no"?>
<svg
   xmlns:dc="http://purl.org/dc/elements/1.1/"
   xmlns:cc="http://creativecommons.org/ns#"
   xmlns:rdf="http://www.w3.org/1999/02/22-rdf-syntax-ns#"
   xmlns:svg="http://www.w3.org/2000/svg"
   xmlns="http://www.w3.org/2000/svg"
   xmlns:sodipodi="http://sodipodi.sourceforge.net/DTD/sodipodi-0.dtd"
   xmlns:inkscape="http://www.inkscape.org/namespaces/inkscape"
   version="1.1"
   id="Layer_1"
   x="0px"
   y="0px"
   viewBox="0 0 2000 2000"
   style="enable-background:new 0 0 2000 2000;"
   xml:space="preserve"
   sodipodi:docname="MainLogoWhiteCoinBridge.svg"
   inkscape:version="1.0.1 (3bc2e813f5, 2020-09-07)"
   inkscape:export-filename="E:\clout-bridge-webpage\src\logos\newLogo\white\MainLogoWhiteCoinBridge.png"
   inkscape:export-xdpi="300"
   inkscape:export-ydpi="300"><metadata
   id="metadata1323"><rdf:RDF><cc:Work
       rdf:about=""><dc:format>image/svg+xml</dc:format><dc:type
         rdf:resource="http://purl.org/dc/dcmitype/StillImage" /><dc:title></dc:title></cc:Work></rdf:RDF></metadata><defs
   id="defs1321" /><sodipodi:namedview
   pagecolor="#ffffff"
   bordercolor="#666666"
   borderopacity="1"
   objecttolerance="10"
   gridtolerance="10"
   guidetolerance="10"
   inkscape:pageopacity="0"
   inkscape:pageshadow="2"
   inkscape:window-width="1858"
   inkscape:window-height="1057"
   id="namedview1319"
   showgrid="false"
   inkscape:zoom="0.30653079"
   inkscape:cx="1235.1121"
   inkscape:cy="1141.591"
   inkscape:window-x="54"
   inkscape:window-y="2"
   inkscape:window-maximized="1"
   inkscape:current-layer="g917"
   inkscape:document-rotation="0"
   inkscape:snap-others="false" />
<style
   type="text/css"
   id="style1202">
	.st0{display:none;fill:#0B50B5;}
	.st1{fill:#1F57FE;}
	.st2{fill:#878787;}
	.st3{fill:#373737;}
	.st4{fill:#323232;}
	.st5{fill:#151515;}
</style>
<rect
   y="0"
   class="st0"
   width="2000"
   height="2000"
   id="rect1204" />
<g
   id="g1316">
	
	<g
   id="g1314">
		
		<g
   id="g1312">
			<rect
   style="opacity:0.997;fill:#000000;fill-opacity:1;fill-rule:evenodd;stroke-width:0;stroke-linejoin:round"
   id="rect887"
   width="2012.8485"
   height="1998.1681"
   x="1.6311547"
   y="3.2622998" />
			
			<g
   id="g902"
   transform="matrix(0.92143706,0,0,0.92143706,-374.21621,63.532851)"><g
     id="g917"
     transform="matrix(0.96552084,0,0,0.96552084,51.421657,452.47155)"><g
       id="g1294"
       style="fill:#ffffff;fill-opacity:1"
       transform="matrix(2.7879415,0,0,2.7879415,-1296.5578,-1751.0941)">
				<path
   d="M 682.22,957.43 C 734.08,829.75 859.7,743.47 1000,743.47 c 55.66,0 109.01,13.59 156.37,37.94 -56.2,-41.93 -129.4,-68.72 -200.23,-62.95 -66.62,5.42 -130.06,32.67 -182.77,73.28 -55.3,42.61 -97.88,100.66 -122.03,165.69 z"
   id="path1286"
   style="fill:#ffffff;fill-opacity:1" />
				<path
   d="m 1117.95,742.91 c 0.08,0.05 0.22,0.13 0.43,0.22 3.1,1.63 6.21,3.34 9.33,5.14 l 0.02,-0.02 c 22.74,12.96 80.12,49.04 123.07,104.49 4.79,5.11 9.41,10.37 13.88,15.78 21.85,26.43 39.86,56.32 53.09,88.9 h 30.89 c -24.15,-65.03 -66.72,-123.08 -122.03,-165.69 -28.78,-22.17 -60.06,-39.76 -93.11,-52.48 -2.98,-1.15 -5.97,-2.26 -8.98,-3.33 -20.1,-7.15 -40.84,-12.53 -62.03,-16.1 17.69,5.49 36.3,12.96 55.36,23.05 0.03,0.01 0.06,0.02 0.08,0.04 z"
   id="path1288"
   style="fill:#ffffff;fill-opacity:1" />
				<path
   d="m 747.58,957.43 c 51.29,-90.89 148.91,-150.1 256.6,-150.1 47.79,0 93.59,11.67 134.24,32.57 -8.43,-4.33 -16.06,-11.34 -24.28,-16.24 -8.68,-5.17 -17.63,-9.88 -26.82,-14.08 -18.27,-8.35 -37.46,-14.7 -57.14,-18.74 -40.64,-8.34 -82.79,-6.29 -122.39,6.11 -35.46,11.1 -68.77,29.16 -98.17,51.8 -37.72,29.07 -68.55,66.5 -90.02,108.67 h 27.98 z"
   id="path1290"
   style="fill:#ffffff;fill-opacity:1" />
				<path
   d="m 1105.44,806.85 c 0.07,0.04 0.19,0.11 0.37,0.19 2.67,1.4 5.33,2.87 8.01,4.41 l 0.01,-0.01 c 19.52,11.13 68.78,42.1 105.66,89.71 4.11,4.38 8.08,8.9 11.91,13.55 10.98,13.28 20.82,27.57 29.38,42.74 h 27.98 c -21.47,-42.16 -52.3,-79.6 -90.02,-108.67 -24.7,-19.03 -51.56,-34.13 -79.94,-45.05 -2.56,-0.99 -5.12,-1.94 -7.71,-2.86 -17.26,-6.14 -35.06,-10.76 -53.25,-13.82 15.18,4.71 31.16,11.13 47.53,19.79 0.03,-0.01 0.06,0 0.07,0.02 z"
   id="path1292"
   style="fill:#ffffff;fill-opacity:1" />
			</g></g></g>
		</g>
	</g>
</g>
</svg>
