<?xml version="1.0" encoding="UTF-8" standalone="no"?>
<svg
   xmlns:dc="http://purl.org/dc/elements/1.1/"
   xmlns:cc="http://creativecommons.org/ns#"
   xmlns:rdf="http://www.w3.org/1999/02/22-rdf-syntax-ns#"
   xmlns:svg="http://www.w3.org/2000/svg"
   xmlns="http://www.w3.org/2000/svg"
   xmlns:sodipodi="http://sodipodi.sourceforge.net/DTD/sodipodi-0.dtd"
   xmlns:inkscape="http://www.inkscape.org/namespaces/inkscape"
   version="1.1"
   id="Layer_1"
   x="0px"
   y="0px"
   viewBox="0 0 1500 750"
   xml:space="preserve"
   sodipodi:docname="MainLogoAbelResizepPoly.svg"
   inkscape:version="1.0.1 (3bc2e813f5, 2020-09-07)"
   width="1500"
   height="750"
   inkscape:export-filename="E:\clout-bridge-webpage\src\logos\newLogo\black\MainLogoAbelResizePoly.png"
   inkscape:export-xdpi="48.4557"
   inkscape:export-ydpi="48.4557"><metadata
   id="metadata1323"><rdf:RDF><cc:Work
       rdf:about=""><dc:format>image/svg+xml</dc:format><dc:type
         rdf:resource="http://purl.org/dc/dcmitype/StillImage" /><dc:title></dc:title></cc:Work></rdf:RDF></metadata><defs
   id="defs1321" /><sodipodi:namedview
   pagecolor="#ffffff"
   bordercolor="#666666"
   borderopacity="1"
   objecttolerance="10"
   gridtolerance="10"
   guidetolerance="10"
   inkscape:pageopacity="0"
   inkscape:pageshadow="2"
   inkscape:window-width="1858"
   inkscape:window-height="1057"
   id="namedview1319"
   showgrid="false"
   inkscape:zoom="0.61306158"
   inkscape:cx="568.0623"
   inkscape:cy="330.24975"
   inkscape:window-x="54"
   inkscape:window-y="2"
   inkscape:window-maximized="1"
   inkscape:current-layer="g1401"
   inkscape:document-rotation="0" />
<style
   type="text/css"
   id="style1202">
	.st0{display:none;fill:#0B50B5;}
	.st1{fill:#1F57FE;}
	.st2{fill:#878787;}
	.st3{fill:#373737;}
	.st4{fill:#323232;}
	.st5{fill:#151515;}
</style>
<rect
   y="0"
   class="st0"
   width="2000"
   height="2000"
   id="rect1204"
   x="0" />
<g
   id="g1316">
	
	<g
   id="g1314">
		
		
	<g
   id="g1401"
   transform="translate(2.3363777e-6,-625.00027)"><g
     id="g1312"
     transform="translate(-250)">
			<g
   id="g1294">
				<path
   d="M 682.22,957.43 C 734.08,829.75 859.7,743.47 1000,743.47 c 55.66,0 109.01,13.59 156.37,37.94 -56.2,-41.93 -129.4,-68.72 -200.23,-62.95 -66.62,5.42 -130.06,32.67 -182.77,73.28 -55.3,42.61 -97.88,100.66 -122.03,165.69 z"
   id="path1286" />
				<path
   d="m 1117.95,742.91 c 0.08,0.05 0.22,0.13 0.43,0.22 3.1,1.63 6.21,3.34 9.33,5.14 l 0.02,-0.02 c 22.74,12.96 80.12,49.04 123.07,104.49 4.79,5.11 9.41,10.37 13.88,15.78 21.85,26.43 39.86,56.32 53.09,88.9 h 30.89 c -24.15,-65.03 -66.72,-123.08 -122.03,-165.69 -28.78,-22.17 -60.06,-39.76 -93.11,-52.48 -2.98,-1.15 -5.97,-2.26 -8.98,-3.33 -20.1,-7.15 -40.84,-12.53 -62.03,-16.1 17.69,5.49 36.3,12.96 55.36,23.05 0.03,0.01 0.06,0.02 0.08,0.04 z"
   id="path1288" />
				<path
   d="m 747.58,957.43 c 51.29,-90.89 148.91,-150.1 256.6,-150.1 47.79,0 93.59,11.67 134.24,32.57 -8.43,-4.33 -16.06,-11.34 -24.28,-16.24 -8.68,-5.17 -17.63,-9.88 -26.82,-14.08 -18.27,-8.35 -37.46,-14.7 -57.14,-18.74 -40.64,-8.34 -82.79,-6.29 -122.39,6.11 -35.46,11.1 -68.77,29.16 -98.17,51.8 -37.72,29.07 -68.55,66.5 -90.02,108.67 h 27.98 z"
   id="path1290" />
				<path
   d="m 1105.44,806.85 c 0.07,0.04 0.19,0.11 0.37,0.19 2.67,1.4 5.33,2.87 8.01,4.41 l 0.01,-0.01 c 19.52,11.13 68.78,42.1 105.66,89.71 4.11,4.38 8.08,8.9 11.91,13.55 10.98,13.28 20.82,27.57 29.38,42.74 h 27.98 c -21.47,-42.16 -52.3,-79.6 -90.02,-108.67 -24.7,-19.03 -51.56,-34.13 -79.94,-45.05 -2.56,-0.99 -5.12,-1.94 -7.71,-2.86 -17.26,-6.14 -35.06,-10.76 -53.25,-13.82 15.18,4.71 31.16,11.13 47.53,19.79 0.03,-0.01 0.06,0 0.07,0.02 z"
   id="path1292" />
			</g>
			<path
   d="m 730.35,1016.8 -16.45,-8.5 16.38,-19.75 0.2,-0.12 c 0.65,-0.4 1.04,-1.12 1.02,-1.88 -0.03,-0.76 -0.46,-1.46 -1.15,-1.81 l -30.32,-15.67 c -0.61,-0.31 -1.33,-0.31 -1.94,0 l -30.32,15.67 c -0.68,0.35 -1.12,1.05 -1.14,1.81 -0.03,0.76 0.36,1.49 1.02,1.89 l 0.2,0.12 16.38,19.75 -16.45,8.5 c -0.68,0.35 -1.12,1.04 -1.15,1.81 -0.03,0.76 0.36,1.48 1.02,1.88 l 0.19,0.12 29.59,35.68 c 0.4,0.48 1,0.76 1.63,0.76 0.63,0 1.23,-0.28 1.63,-0.76 l 29.59,-35.68 0.19,-0.12 c 0.65,-0.4 1.04,-1.12 1.02,-1.88 -0.02,-0.78 -0.46,-1.47 -1.14,-1.82 z m -51.45,-21.55 19.06,11.54 c 0.33,0.2 0.71,0.31 1.1,0.31 0.39,0 0.77,-0.11 1.1,-0.31 l 19.06,-11.54 -20.16,24.3 z m 20.16,7.24 -25.98,-15.73 25.98,-13.43 25.98,13.43 z m -1.64,21.73 c 0.4,0.49 1,0.77 1.63,0.77 0.63,0 1.23,-0.28 1.63,-0.77 l 10.44,-12.58 13.92,7.19 -25.98,15.73 -25.98,-15.73 13.92,-7.19 z m 0.54,14.63 c 0.33,0.2 0.71,0.31 1.1,0.31 0.39,0 0.77,-0.11 1.1,-0.31 l 19.06,-11.54 -20.16,24.3 -20.16,-24.3 z"
   id="path1296" />
			<g
   id="g1310">
				<polygon
   points="1304.09,1000.41 1304.09,967.53 1276.9,1012.5 "
   id="polygon1298" />
				<polygon
   points="1304.09,1000.41 1276.9,1012.5 1304.09,1028.73 "
   id="polygon1300" />
				<polygon
   points="1304.09,1000.41 1304.09,967.53 1331.29,1012.5 "
   id="polygon1302" />
				<polygon
   points="1304.09,1000.41 1331.29,1012.5 1304.09,1028.73 "
   id="polygon1304" />
				<polygon
   points="1277.33,1018.03 1304.09,1033.74 1304.09,1055.75 "
   id="polygon1306" />
				<polygon
   points="1330.85,1018.03 1304.09,1033.74 1304.09,1055.75 "
   id="polygon1308" />
			</g>
		</g><text
     xml:space="preserve"
     style="font-size:214.568px;line-height:1.25;font-family:Abel;-inkscape-font-specification:Abel;stroke-width:1.34104"
     x="89.00808"
     y="1570.0656"
     id="text1331"
     transform="scale(1.3410432,0.74568813)"><tspan
       sodipodi:role="line"
       id="tspan1329"
       x="89.00808"
       y="1570.0656"
       style="stroke-width:1.34104">CloutBridge</tspan></text><text
     xml:space="preserve"
     style="font-size:68.09px;line-height:1.25;font-family:'Core Sans G';-inkscape-font-specification:'Core Sans G';stroke:#000000;stroke-width:1.675;stroke-miterlimit:4;stroke-dasharray:none;stroke-opacity:1"
     x="223.9846"
     y="1574.3525"
     id="text878"
     transform="scale(1.2348591,0.80980899)"><tspan
       sodipodi:role="line"
       id="tspan876"
       x="223.9846"
       y="1574.3525"
       style="font-style:normal;font-variant:normal;font-weight:normal;font-stretch:normal;font-size:68.09px;font-family:Abel;-inkscape-font-specification:Abel;stroke:#000000;stroke-width:1.675;stroke-miterlimit:4;stroke-dasharray:none;stroke-opacity:1">BRIDGING CLOUT TO POLYGON</tspan></text></g></g>
</g>
</svg>
