<?xml version="1.0" encoding="UTF-8" standalone="no"?>
<svg
   xmlns:dc="http://purl.org/dc/elements/1.1/"
   xmlns:cc="http://creativecommons.org/ns#"
   xmlns:rdf="http://www.w3.org/1999/02/22-rdf-syntax-ns#"
   xmlns:svg="http://www.w3.org/2000/svg"
   xmlns="http://www.w3.org/2000/svg"
   xmlns:sodipodi="http://sodipodi.sourceforge.net/DTD/sodipodi-0.dtd"
   xmlns:inkscape="http://www.inkscape.org/namespaces/inkscape"
   version="1.1"
   id="Layer_1"
   x="0px"
   y="0px"
   viewBox="0 0 1500 750"
   xml:space="preserve"
   sodipodi:docname="MainLogoAbelResize.svg"
   inkscape:version="1.0.1 (3bc2e813f5, 2020-09-07)"
   width="1500"
   height="750"><metadata
   id="metadata1323"><rdf:RDF><cc:Work
       rdf:about=""><dc:format>image/svg+xml</dc:format><dc:type
         rdf:resource="http://purl.org/dc/dcmitype/StillImage" /><dc:title></dc:title></cc:Work></rdf:RDF></metadata><defs
   id="defs1321" /><sodipodi:namedview
   pagecolor="#ffffff"
   bordercolor="#666666"
   borderopacity="1"
   objecttolerance="10"
   gridtolerance="10"
   guidetolerance="10"
   inkscape:pageopacity="0"
   inkscape:pageshadow="2"
   inkscape:window-width="1858"
   inkscape:window-height="1057"
   id="namedview1319"
   showgrid="false"
   inkscape:zoom="0.4335"
   inkscape:cx="1009.2272"
   inkscape:cy="538.63899"
   inkscape:window-x="54"
   inkscape:window-y="2"
   inkscape:window-maximized="1"
   inkscape:current-layer="g1314" />
<style
   type="text/css"
   id="style1202">
	.st0{display:none;fill:#0B50B5;}
	.st1{fill:#1F57FE;}
	.st2{fill:#878787;}
	.st3{fill:#373737;}
	.st4{fill:#323232;}
	.st5{fill:#151515;}
</style>
<rect
   y="0"
   class="st0"
   width="2000"
   height="2000"
   id="rect1204"
   x="0" />
<g
   id="g1316">
	
	<g
   id="g1314">
		
		
	<g
   id="g1401"
   transform="translate(2.3363777e-6,-625.00027)"><g
     id="g1256"
     transform="translate(-246.095)">
		<g
   id="g1254">
			<path
   d="m 533.59,1261.7 c 1.11,1.45 1.67,3.26 1.67,5.42 0,2.97 -1.14,5.27 -3.43,6.89 -2.29,1.62 -5.62,2.43 -10,2.43 h -17.06 v -34.32 h 16.08 c 4.05,0 7.18,0.79 9.37,2.38 2.19,1.59 3.28,3.77 3.28,6.55 0,1.7 -0.39,3.2 -1.18,4.51 -0.79,1.31 -1.86,2.32 -3.24,3.04 1.89,0.61 3.4,1.65 4.51,3.1 z m -22.46,-14.58 v 9.46 h 9.02 c 2.22,0 3.93,-0.4 5.12,-1.2 1.19,-0.8 1.79,-1.97 1.79,-3.51 0,-1.57 -0.6,-2.75 -1.79,-3.55 -1.19,-0.8 -2.9,-1.2 -5.12,-1.2 z m 17.7,19.36 c 0,-3.3 -2.47,-4.95 -7.4,-4.95 h -10.3 v 9.9 h 10.3 c 4.93,0.01 7.4,-1.65 7.4,-4.95 z"
   id="path1206" />
			<path
   d="m 569.43,1276.44 -7.01,-10.05 c -0.29,0.03 -0.74,0.05 -1.32,0.05 h -7.75 v 10 h -6.37 v -34.32 h 14.12 c 2.97,0 5.57,0.49 7.77,1.47 2.21,0.98 3.9,2.39 5.07,4.22 1.18,1.83 1.77,4.01 1.77,6.52 0,2.58 -0.63,4.81 -1.89,6.67 -1.26,1.86 -3.06,3.25 -5.42,4.17 l 7.89,11.28 h -6.86 z m -2.3,-27.17 c -1.44,-1.18 -3.55,-1.77 -6.33,-1.77 h -7.45 v 13.68 h 7.45 c 2.78,0 4.88,-0.6 6.33,-1.79 1.44,-1.19 2.16,-2.88 2.16,-5.08 -0.01,-2.18 -0.73,-3.86 -2.16,-5.04 z"
   id="path1208" />
			<path
   d="m 587.72,1242.11 h 6.37 v 34.32 h -6.37 z"
   id="path1210" />
			<path
   d="m 608.26,1242.11 h 15 c 3.66,0 6.91,0.71 9.76,2.13 2.84,1.42 5.05,3.43 6.62,6.03 1.57,2.6 2.35,5.6 2.35,9 0,3.4 -0.78,6.4 -2.35,9 -1.57,2.6 -3.77,4.61 -6.62,6.03 -2.84,1.42 -6.1,2.13 -9.76,2.13 h -15 z m 14.71,28.93 c 2.52,0 4.73,-0.48 6.64,-1.45 1.91,-0.96 3.38,-2.34 4.41,-4.12 1.03,-1.78 1.54,-3.85 1.54,-6.2 0,-2.35 -0.51,-4.42 -1.54,-6.2 -1.03,-1.78 -2.5,-3.15 -4.41,-4.12 -1.91,-0.96 -4.13,-1.45 -6.64,-1.45 h -8.34 v 23.54 z"
   id="path1212" />
			<path
   d="m 677.1,1258.88 h 6.03 v 13.68 c -1.76,1.41 -3.82,2.48 -6.18,3.24 -2.35,0.75 -4.77,1.13 -7.26,1.13 -3.5,0 -6.65,-0.76 -9.46,-2.28 -2.81,-1.52 -5.02,-3.62 -6.62,-6.3 -1.6,-2.68 -2.4,-5.7 -2.4,-9.07 0,-3.37 0.8,-6.39 2.4,-9.07 1.6,-2.68 3.82,-4.78 6.65,-6.3 2.83,-1.52 6.01,-2.28 9.54,-2.28 2.87,0 5.49,0.47 7.84,1.42 2.35,0.95 4.33,2.34 5.93,4.17 l -4.02,3.92 c -2.61,-2.61 -5.77,-3.92 -9.46,-3.92 -2.42,0 -4.57,0.51 -6.45,1.52 -1.88,1.01 -3.35,2.44 -4.41,4.26 -1.06,1.83 -1.59,3.92 -1.59,6.28 0,2.29 0.53,4.35 1.59,6.18 1.06,1.83 2.53,3.27 4.41,4.31 1.88,1.05 4.01,1.57 6.4,1.57 2.68,0 5.03,-0.59 7.06,-1.77 z"
   id="path1214" />
			<path
   d="m 696.42,1242.11 h 6.37 v 34.32 h -6.37 z"
   id="path1216" />
			<path
   d="m 747.46,1242.11 v 34.32 h -5.24 l -18.93,-23.24 v 23.24 h -6.33 v -34.32 h 5.25 l 18.92,23.24 v -23.24 z"
   id="path1218" />
			<path
   d="m 785.02,1258.88 h 6.03 v 13.68 c -1.76,1.41 -3.82,2.48 -6.18,3.24 -2.35,0.75 -4.77,1.13 -7.26,1.13 -3.5,0 -6.65,-0.76 -9.46,-2.28 -2.81,-1.52 -5.02,-3.62 -6.62,-6.3 -1.6,-2.68 -2.4,-5.7 -2.4,-9.07 0,-3.37 0.8,-6.39 2.4,-9.07 1.6,-2.68 3.82,-4.78 6.65,-6.3 2.83,-1.52 6.01,-2.28 9.54,-2.28 2.87,0 5.49,0.47 7.84,1.42 2.35,0.95 4.33,2.34 5.93,4.17 l -4.02,3.92 c -2.61,-2.61 -5.77,-3.92 -9.46,-3.92 -2.42,0 -4.57,0.51 -6.45,1.52 -1.88,1.01 -3.35,2.44 -4.41,4.26 -1.06,1.83 -1.59,3.92 -1.59,6.28 0,2.29 0.53,4.35 1.59,6.18 1.06,1.83 2.53,3.27 4.41,4.31 1.88,1.05 4.01,1.57 6.4,1.57 2.68,0 5.03,-0.59 7.06,-1.77 z"
   id="path1220" />
			<path
   d="m 844.37,1273.47 c -1.95,1.85 -4.77,2.97 -8.46,3.36 v 5.49 h -4.02 v -5.44 c -2.42,-0.16 -4.71,-0.6 -6.87,-1.32 -2.16,-0.72 -3.87,-1.63 -5.15,-2.75 l 2.21,-4.95 c 1.21,0.98 2.68,1.81 4.41,2.48 1.73,0.67 3.53,1.09 5.39,1.25 v -9.81 c -2.32,-0.55 -4.26,-1.17 -5.81,-1.84 -1.55,-0.67 -2.85,-1.65 -3.9,-2.94 -1.05,-1.29 -1.57,-3 -1.57,-5.12 0,-2.65 0.96,-4.9 2.9,-6.77 1.93,-1.86 4.72,-2.97 8.38,-3.33 v -5.54 h 4.02 v 5.44 c 1.83,0.1 3.62,0.41 5.37,0.93 1.75,0.52 3.28,1.21 4.59,2.06 l -2.01,4.95 c -2.48,-1.44 -5.13,-2.32 -7.94,-2.65 v 9.9 c 2.35,0.56 4.3,1.16 5.86,1.81 1.55,0.65 2.86,1.63 3.92,2.92 1.06,1.29 1.59,3 1.59,5.12 0,2.66 -0.97,4.9 -2.91,6.75 z m -16.16,-19.29 c 0.85,0.65 2.07,1.21 3.68,1.67 v -8.73 c -1.67,0.26 -2.91,0.78 -3.73,1.57 -0.82,0.78 -1.23,1.75 -1.23,2.89 0.01,1.08 0.43,1.94 1.28,2.6 z m 11.55,15.78 c 0.83,-0.75 1.25,-1.68 1.25,-2.79 0,-1.11 -0.44,-2 -1.32,-2.67 -0.88,-0.67 -2.14,-1.23 -3.77,-1.69 v 8.68 c 1.72,-0.27 3,-0.77 3.84,-1.53 z"
   id="path1222" />
			<path
   d="m 865.01,1274.65 c -2.8,-1.52 -4.99,-3.62 -6.57,-6.3 -1.59,-2.68 -2.38,-5.7 -2.38,-9.07 0,-3.37 0.8,-6.39 2.4,-9.07 1.6,-2.68 3.8,-4.78 6.6,-6.3 2.79,-1.52 5.93,-2.28 9.39,-2.28 2.81,0 5.37,0.49 7.7,1.47 2.32,0.98 4.28,2.4 5.88,4.27 l -4.12,3.87 c -2.48,-2.68 -5.54,-4.02 -9.17,-4.02 -2.35,0 -4.46,0.52 -6.33,1.54 -1.86,1.03 -3.32,2.46 -4.36,4.29 -1.05,1.83 -1.57,3.91 -1.57,6.23 0,2.32 0.52,4.4 1.57,6.23 1.04,1.83 2.5,3.26 4.36,4.29 1.86,1.03 3.97,1.54 6.33,1.54 3.63,0 6.68,-1.36 9.17,-4.07 l 4.12,3.92 c -1.6,1.86 -3.57,3.28 -5.91,4.27 -2.34,0.98 -4.91,1.47 -7.72,1.47 -3.47,0 -6.6,-0.76 -9.39,-2.28 z"
   id="path1224" />
			<path
   d="m 899.06,1242.11 h 6.37 v 28.93 h 17.95 v 5.39 h -24.32 z"
   id="path1226" />
			<path
   d="m 939.26,1274.65 c -2.81,-1.52 -5.02,-3.63 -6.62,-6.33 -1.6,-2.7 -2.4,-5.71 -2.4,-9.05 0,-3.34 0.8,-6.35 2.4,-9.05 1.6,-2.7 3.81,-4.81 6.62,-6.33 2.81,-1.52 5.97,-2.28 9.46,-2.28 3.5,0 6.65,0.76 9.46,2.28 2.81,1.52 5.02,3.62 6.62,6.3 1.6,2.68 2.4,5.7 2.4,9.07 0,3.37 -0.8,6.39 -2.4,9.07 -1.6,2.68 -3.81,4.78 -6.62,6.3 -2.81,1.52 -5.97,2.28 -9.46,2.28 -3.49,0.02 -6.65,-0.74 -9.46,-2.26 z m 15.65,-4.86 c 1.83,-1.03 3.27,-2.47 4.32,-4.32 1.05,-1.85 1.57,-3.91 1.57,-6.2 0,-2.29 -0.52,-4.35 -1.57,-6.2 -1.05,-1.85 -2.48,-3.28 -4.32,-4.32 -1.83,-1.03 -3.89,-1.54 -6.18,-1.54 -2.29,0 -4.35,0.52 -6.18,1.54 -1.83,1.03 -3.27,2.47 -4.31,4.32 -1.05,1.85 -1.57,3.92 -1.57,6.2 0,2.29 0.52,4.36 1.57,6.2 1.04,1.85 2.48,3.28 4.31,4.32 1.83,1.03 3.89,1.54 6.18,1.54 2.28,0.01 4.35,-0.51 6.18,-1.54 z"
   id="path1228" />
			<path
   d="m 982.56,1272.93 c -2.65,-2.66 -3.97,-6.48 -3.97,-11.45 v -19.37 h 6.37 v 19.12 c 0,6.73 2.91,10.1 8.73,10.1 5.79,0 8.68,-3.37 8.68,-10.1 v -19.12 h 6.28 v 19.37 c 0,4.97 -1.31,8.79 -3.95,11.45 -2.63,2.66 -6.32,4 -11.06,4 -4.74,0 -8.43,-1.33 -11.08,-4 z"
   id="path1230" />
			<path
   d="m 1028.79,1247.51 h -11.37 v -5.39 h 29.12 v 5.39 h -11.37 v 28.93 h -6.38 z"
   id="path1232" />
			<path
   d="m 1081.65,1247.51 h -11.37 v -5.39 h 29.12 v 5.39 h -11.37 v 28.93 h -6.38 z"
   id="path1234" />
			<path
   d="m 1115.19,1274.65 c -2.81,-1.52 -5.02,-3.63 -6.62,-6.33 -1.6,-2.7 -2.4,-5.71 -2.4,-9.05 0,-3.34 0.8,-6.35 2.4,-9.05 1.6,-2.7 3.81,-4.81 6.62,-6.33 2.81,-1.52 5.97,-2.28 9.46,-2.28 3.5,0 6.65,0.76 9.46,2.28 2.81,1.52 5.02,3.62 6.62,6.3 1.6,2.68 2.4,5.7 2.4,9.07 0,3.37 -0.8,6.39 -2.4,9.07 -1.6,2.68 -3.81,4.78 -6.62,6.3 -2.81,1.52 -5.97,2.28 -9.46,2.28 -3.5,0.02 -6.65,-0.74 -9.46,-2.26 z m 15.64,-4.86 c 1.83,-1.03 3.27,-2.47 4.32,-4.32 1.05,-1.85 1.57,-3.91 1.57,-6.2 0,-2.29 -0.52,-4.35 -1.57,-6.2 -1.05,-1.85 -2.48,-3.28 -4.32,-4.32 -1.83,-1.03 -3.89,-1.54 -6.18,-1.54 -2.29,0 -4.35,0.52 -6.18,1.54 -1.83,1.03 -3.27,2.47 -4.31,4.32 -1.05,1.85 -1.57,3.92 -1.57,6.2 0,2.29 0.52,4.36 1.57,6.2 1.04,1.85 2.48,3.28 4.31,4.32 1.83,1.03 3.89,1.54 6.18,1.54 2.29,0.01 4.35,-0.51 6.18,-1.54 z"
   id="path1236" />
			<path
   d="m 1198.98,1271.09 v 5.34 h -25.74 v -34.32 h 25.06 v 5.34 h -18.68 v 8.92 h 16.57 v 5.25 h -16.57 v 9.46 h 19.36 z"
   id="path1238" />
			<path
   d="m 1217.95,1247.51 h -11.37 v -5.39 h 29.12 v 5.39 h -11.37 v 28.93 h -6.38 z"
   id="path1240" />
			<path
   d="m 1275.91,1242.11 v 34.32 h -6.37 v -14.71 h -17.75 v 14.71 h -6.37 v -34.32 h 6.37 v 14.17 h 17.75 v -14.17 z"
   id="path1242" />
			<path
   d="m 1315.77,1271.09 v 5.34 h -25.74 v -34.32 h 25.06 v 5.34 h -18.68 v 8.92 h 16.57 v 5.25 h -16.57 v 9.46 h 19.36 z"
   id="path1244" />
			<path
   d="m 1350.24,1276.44 -7.01,-10.05 c -0.29,0.03 -0.74,0.05 -1.32,0.05 h -7.75 v 10 h -6.37 v -34.32 h 14.12 c 2.97,0 5.57,0.49 7.77,1.47 2.21,0.98 3.9,2.39 5.07,4.22 1.18,1.83 1.77,4.01 1.77,6.52 0,2.58 -0.63,4.81 -1.89,6.67 -1.26,1.86 -3.06,3.25 -5.42,4.17 l 7.89,11.28 h -6.86 z m -2.3,-27.17 c -1.44,-1.18 -3.55,-1.77 -6.33,-1.77 h -7.45 v 13.68 h 7.45 c 2.78,0 4.88,-0.6 6.33,-1.79 1.44,-1.19 2.16,-2.88 2.16,-5.08 -0.01,-2.18 -0.73,-3.86 -2.16,-5.04 z"
   id="path1246" />
			<path
   d="m 1394.27,1271.09 v 5.34 h -25.74 v -34.32 h 25.06 v 5.34 h -18.68 v 8.92 h 16.57 v 5.25 h -16.57 v 9.46 h 19.36 z"
   id="path1248" />
			<path
   d="m 1409.96,1272.93 c -2.65,-2.66 -3.97,-6.48 -3.97,-11.45 v -19.37 h 6.37 v 19.12 c 0,6.73 2.91,10.1 8.73,10.1 5.79,0 8.68,-3.37 8.68,-10.1 v -19.12 h 6.28 v 19.37 c 0,4.97 -1.31,8.79 -3.95,11.45 -2.63,2.66 -6.31,4 -11.06,4 -4.74,0 -8.43,-1.33 -11.08,-4 z"
   id="path1250" />
			<path
   d="m 1481.39,1276.44 -0.05,-22.75 -11.28,18.83 h -2.84 l -11.28,-18.53 v 22.46 h -6.08 v -34.32 h 5.25 l 13.63,22.75 13.38,-22.75 h 5.25 l 0.05,34.32 h -6.03 z"
   id="path1252" />
		</g>
	</g><g
     id="g1312"
     transform="translate(-250)">
			<g
   id="g1294">
				<path
   d="M 682.22,957.43 C 734.08,829.75 859.7,743.47 1000,743.47 c 55.66,0 109.01,13.59 156.37,37.94 -56.2,-41.93 -129.4,-68.72 -200.23,-62.95 -66.62,5.42 -130.06,32.67 -182.77,73.28 -55.3,42.61 -97.88,100.66 -122.03,165.69 z"
   id="path1286" />
				<path
   d="m 1117.95,742.91 c 0.08,0.05 0.22,0.13 0.43,0.22 3.1,1.63 6.21,3.34 9.33,5.14 l 0.02,-0.02 c 22.74,12.96 80.12,49.04 123.07,104.49 4.79,5.11 9.41,10.37 13.88,15.78 21.85,26.43 39.86,56.32 53.09,88.9 h 30.89 c -24.15,-65.03 -66.72,-123.08 -122.03,-165.69 -28.78,-22.17 -60.06,-39.76 -93.11,-52.48 -2.98,-1.15 -5.97,-2.26 -8.98,-3.33 -20.1,-7.15 -40.84,-12.53 -62.03,-16.1 17.69,5.49 36.3,12.96 55.36,23.05 0.03,0.01 0.06,0.02 0.08,0.04 z"
   id="path1288" />
				<path
   d="m 747.58,957.43 c 51.29,-90.89 148.91,-150.1 256.6,-150.1 47.79,0 93.59,11.67 134.24,32.57 -8.43,-4.33 -16.06,-11.34 -24.28,-16.24 -8.68,-5.17 -17.63,-9.88 -26.82,-14.08 -18.27,-8.35 -37.46,-14.7 -57.14,-18.74 -40.64,-8.34 -82.79,-6.29 -122.39,6.11 -35.46,11.1 -68.77,29.16 -98.17,51.8 -37.72,29.07 -68.55,66.5 -90.02,108.67 h 27.98 z"
   id="path1290" />
				<path
   d="m 1105.44,806.85 c 0.07,0.04 0.19,0.11 0.37,0.19 2.67,1.4 5.33,2.87 8.01,4.41 l 0.01,-0.01 c 19.52,11.13 68.78,42.1 105.66,89.71 4.11,4.38 8.08,8.9 11.91,13.55 10.98,13.28 20.82,27.57 29.38,42.74 h 27.98 c -21.47,-42.16 -52.3,-79.6 -90.02,-108.67 -24.7,-19.03 -51.56,-34.13 -79.94,-45.05 -2.56,-0.99 -5.12,-1.94 -7.71,-2.86 -17.26,-6.14 -35.06,-10.76 -53.25,-13.82 15.18,4.71 31.16,11.13 47.53,19.79 0.03,-0.01 0.06,0 0.07,0.02 z"
   id="path1292" />
			</g>
			<path
   d="m 730.35,1016.8 -16.45,-8.5 16.38,-19.75 0.2,-0.12 c 0.65,-0.4 1.04,-1.12 1.02,-1.88 -0.03,-0.76 -0.46,-1.46 -1.15,-1.81 l -30.32,-15.67 c -0.61,-0.31 -1.33,-0.31 -1.94,0 l -30.32,15.67 c -0.68,0.35 -1.12,1.05 -1.14,1.81 -0.03,0.76 0.36,1.49 1.02,1.89 l 0.2,0.12 16.38,19.75 -16.45,8.5 c -0.68,0.35 -1.12,1.04 -1.15,1.81 -0.03,0.76 0.36,1.48 1.02,1.88 l 0.19,0.12 29.59,35.68 c 0.4,0.48 1,0.76 1.63,0.76 0.63,0 1.23,-0.28 1.63,-0.76 l 29.59,-35.68 0.19,-0.12 c 0.65,-0.4 1.04,-1.12 1.02,-1.88 -0.02,-0.78 -0.46,-1.47 -1.14,-1.82 z m -51.45,-21.55 19.06,11.54 c 0.33,0.2 0.71,0.31 1.1,0.31 0.39,0 0.77,-0.11 1.1,-0.31 l 19.06,-11.54 -20.16,24.3 z m 20.16,7.24 -25.98,-15.73 25.98,-13.43 25.98,13.43 z m -1.64,21.73 c 0.4,0.49 1,0.77 1.63,0.77 0.63,0 1.23,-0.28 1.63,-0.77 l 10.44,-12.58 13.92,7.19 -25.98,15.73 -25.98,-15.73 13.92,-7.19 z m 0.54,14.63 c 0.33,0.2 0.71,0.31 1.1,0.31 0.39,0 0.77,-0.11 1.1,-0.31 l 19.06,-11.54 -20.16,24.3 -20.16,-24.3 z"
   id="path1296" />
			<g
   id="g1310">
				<polygon
   points="1304.09,1000.41 1304.09,967.53 1276.9,1012.5 "
   id="polygon1298" />
				<polygon
   points="1304.09,1000.41 1276.9,1012.5 1304.09,1028.73 "
   id="polygon1300" />
				<polygon
   points="1304.09,1000.41 1304.09,967.53 1331.29,1012.5 "
   id="polygon1302" />
				<polygon
   points="1304.09,1000.41 1331.29,1012.5 1304.09,1028.73 "
   id="polygon1304" />
				<polygon
   points="1277.33,1018.03 1304.09,1033.74 1304.09,1055.75 "
   id="polygon1306" />
				<polygon
   points="1330.85,1018.03 1304.09,1033.74 1304.09,1055.75 "
   id="polygon1308" />
			</g>
		</g><text
     xml:space="preserve"
     style="font-size:214.568px;line-height:1.25;font-family:Abel;-inkscape-font-specification:Abel;stroke-width:1.34104"
     x="89.00808"
     y="1570.0656"
     id="text1331"
     transform="scale(1.3410432,0.74568813)"><tspan
       sodipodi:role="line"
       id="tspan1329"
       x="89.00808"
       y="1570.0656"
       style="stroke-width:1.34104">CloutBridge</tspan></text></g></g>
</g>
</svg>
