<?xml version="1.0" encoding="UTF-8" standalone="no"?>
<svg
   xmlns:dc="http://purl.org/dc/elements/1.1/"
   xmlns:cc="http://creativecommons.org/ns#"
   xmlns:rdf="http://www.w3.org/1999/02/22-rdf-syntax-ns#"
   xmlns:svg="http://www.w3.org/2000/svg"
   xmlns="http://www.w3.org/2000/svg"
   xmlns:sodipodi="http://sodipodi.sourceforge.net/DTD/sodipodi-0.dtd"
   xmlns:inkscape="http://www.inkscape.org/namespaces/inkscape"
   version="1.1"
   id="Layer_1"
   x="0px"
   y="0px"
   viewBox="0 0 2000 2000"
   style="enable-background:new 0 0 2000 2000;"
   xml:space="preserve"
   sodipodi:docname="MainLogoAbel.svg"
   inkscape:version="1.0.1 (3bc2e813f5, 2020-09-07)"><metadata
   id="metadata1323"><rdf:RDF><cc:Work
       rdf:about=""><dc:format>image/svg+xml</dc:format><dc:type
         rdf:resource="http://purl.org/dc/dcmitype/StillImage" /><dc:title></dc:title></cc:Work></rdf:RDF></metadata><defs
   id="defs1321" /><sodipodi:namedview
   pagecolor="#ffffff"
   bordercolor="#666666"
   borderopacity="1"
   objecttolerance="10"
   gridtolerance="10"
   guidetolerance="10"
   inkscape:pageopacity="0"
   inkscape:pageshadow="2"
   inkscape:window-width="1858"
   inkscape:window-height="1057"
   id="namedview1319"
   showgrid="false"
   inkscape:zoom="0.4335"
   inkscape:cx="1076.1246"
   inkscape:cy="1000"
   inkscape:window-x="54"
   inkscape:window-y="2"
   inkscape:window-maximized="1"
   inkscape:current-layer="g1314" />
<style
   type="text/css"
   id="style1202">
	.st0{display:none;fill:#0B50B5;}
	.st1{fill:#1F57FE;}
	.st2{fill:#878787;}
	.st3{fill:#373737;}
	.st4{fill:#323232;}
	.st5{fill:#151515;}
</style>
<rect
   y="0"
   class="st0"
   width="2000"
   height="2000"
   id="rect1204" />
<g
   id="g1316">
	<g
   id="g1256">
		<g
   id="g1254">
			<path
   d="M533.59,1261.7c1.11,1.45,1.67,3.26,1.67,5.42c0,2.97-1.14,5.27-3.43,6.89c-2.29,1.62-5.62,2.43-10,2.43h-17.06v-34.32     h16.08c4.05,0,7.18,0.79,9.37,2.38c2.19,1.59,3.28,3.77,3.28,6.55c0,1.7-0.39,3.2-1.18,4.51c-0.79,1.31-1.86,2.32-3.24,3.04     C530.97,1259.21,532.48,1260.25,533.59,1261.7z M511.13,1247.12v9.46h9.02c2.22,0,3.93-0.4,5.12-1.2     c1.19-0.8,1.79-1.97,1.79-3.51c0-1.57-0.6-2.75-1.79-3.55c-1.19-0.8-2.9-1.2-5.12-1.2H511.13z M528.83,1266.48     c0-3.3-2.47-4.95-7.4-4.95h-10.3v9.9h10.3C526.36,1271.44,528.83,1269.78,528.83,1266.48z"
   id="path1206" />
			<path
   d="M569.43,1276.44l-7.01-10.05c-0.29,0.03-0.74,0.05-1.32,0.05h-7.75v10h-6.37v-34.32h14.12c2.97,0,5.57,0.49,7.77,1.47     c2.21,0.98,3.9,2.39,5.07,4.22c1.18,1.83,1.77,4.01,1.77,6.52c0,2.58-0.63,4.81-1.89,6.67c-1.26,1.86-3.06,3.25-5.42,4.17     l7.89,11.28H569.43z M567.13,1249.27c-1.44-1.18-3.55-1.77-6.33-1.77h-7.45v13.68h7.45c2.78,0,4.88-0.6,6.33-1.79     c1.44-1.19,2.16-2.88,2.16-5.08C569.28,1252.13,568.56,1250.45,567.13,1249.27z"
   id="path1208" />
			<path
   d="M587.72,1242.11h6.37v34.32h-6.37V1242.11z"
   id="path1210" />
			<path
   d="M608.26,1242.11h15c3.66,0,6.91,0.71,9.76,2.13c2.84,1.42,5.05,3.43,6.62,6.03c1.57,2.6,2.35,5.6,2.35,9     c0,3.4-0.78,6.4-2.35,9c-1.57,2.6-3.77,4.61-6.62,6.03c-2.84,1.42-6.1,2.13-9.76,2.13h-15V1242.11z M622.97,1271.04     c2.52,0,4.73-0.48,6.64-1.45c1.91-0.96,3.38-2.34,4.41-4.12s1.54-3.85,1.54-6.2s-0.51-4.42-1.54-6.2s-2.5-3.15-4.41-4.12     c-1.91-0.96-4.13-1.45-6.64-1.45h-8.34v23.54H622.97z"
   id="path1212" />
			<path
   d="M677.1,1258.88h6.03v13.68c-1.76,1.41-3.82,2.48-6.18,3.24c-2.35,0.75-4.77,1.13-7.26,1.13c-3.5,0-6.65-0.76-9.46-2.28     c-2.81-1.52-5.02-3.62-6.62-6.3c-1.6-2.68-2.4-5.7-2.4-9.07c0-3.37,0.8-6.39,2.4-9.07c1.6-2.68,3.82-4.78,6.65-6.3     c2.83-1.52,6.01-2.28,9.54-2.28c2.87,0,5.49,0.47,7.84,1.42c2.35,0.95,4.33,2.34,5.93,4.17l-4.02,3.92     c-2.61-2.61-5.77-3.92-9.46-3.92c-2.42,0-4.57,0.51-6.45,1.52c-1.88,1.01-3.35,2.44-4.41,4.26c-1.06,1.83-1.59,3.92-1.59,6.28     c0,2.29,0.53,4.35,1.59,6.18c1.06,1.83,2.53,3.27,4.41,4.31c1.88,1.05,4.01,1.57,6.4,1.57c2.68,0,5.03-0.59,7.06-1.77V1258.88z"
   id="path1214" />
			<path
   d="M696.42,1242.11h6.37v34.32h-6.37V1242.11z"
   id="path1216" />
			<path
   d="M747.46,1242.11v34.32h-5.24l-18.93-23.24v23.24h-6.33v-34.32h5.25l18.92,23.24v-23.24H747.46z"
   id="path1218" />
			<path
   d="M785.02,1258.88h6.03v13.68c-1.76,1.41-3.82,2.48-6.18,3.24c-2.35,0.75-4.77,1.13-7.26,1.13c-3.5,0-6.65-0.76-9.46-2.28     c-2.81-1.52-5.02-3.62-6.62-6.3c-1.6-2.68-2.4-5.7-2.4-9.07c0-3.37,0.8-6.39,2.4-9.07c1.6-2.68,3.82-4.78,6.65-6.3     c2.83-1.52,6.01-2.28,9.54-2.28c2.87,0,5.49,0.47,7.84,1.42c2.35,0.95,4.33,2.34,5.93,4.17l-4.02,3.92     c-2.61-2.61-5.77-3.92-9.46-3.92c-2.42,0-4.57,0.51-6.45,1.52c-1.88,1.01-3.35,2.44-4.41,4.26c-1.06,1.83-1.59,3.92-1.59,6.28     c0,2.29,0.53,4.35,1.59,6.18c1.06,1.83,2.53,3.27,4.41,4.31c1.88,1.05,4.01,1.57,6.4,1.57c2.68,0,5.03-0.59,7.06-1.77V1258.88z"
   id="path1220" />
			<path
   d="M844.37,1273.47c-1.95,1.85-4.77,2.97-8.46,3.36v5.49h-4.02v-5.44c-2.42-0.16-4.71-0.6-6.87-1.32     c-2.16-0.72-3.87-1.63-5.15-2.75l2.21-4.95c1.21,0.98,2.68,1.81,4.41,2.48c1.73,0.67,3.53,1.09,5.39,1.25v-9.81     c-2.32-0.55-4.26-1.17-5.81-1.84s-2.85-1.65-3.9-2.94c-1.05-1.29-1.57-3-1.57-5.12c0-2.65,0.96-4.9,2.9-6.77     c1.93-1.86,4.72-2.97,8.38-3.33v-5.54h4.02v5.44c1.83,0.1,3.62,0.41,5.37,0.93c1.75,0.52,3.28,1.21,4.59,2.06l-2.01,4.95     c-2.48-1.44-5.13-2.32-7.94-2.65v9.9c2.35,0.56,4.3,1.16,5.86,1.81c1.55,0.65,2.86,1.63,3.92,2.92c1.06,1.29,1.59,3,1.59,5.12     C847.28,1269.38,846.31,1271.62,844.37,1273.47z M828.21,1254.18c0.85,0.65,2.07,1.21,3.68,1.67v-8.73     c-1.67,0.26-2.91,0.78-3.73,1.57c-0.82,0.78-1.23,1.75-1.23,2.89C826.94,1252.66,827.36,1253.52,828.21,1254.18z M839.76,1269.96     c0.83-0.75,1.25-1.68,1.25-2.79c0-1.11-0.44-2-1.32-2.67s-2.14-1.23-3.77-1.69v8.68     C837.64,1271.22,838.92,1270.72,839.76,1269.96z"
   id="path1222" />
			<path
   d="M865.01,1274.65c-2.8-1.52-4.99-3.62-6.57-6.3c-1.59-2.68-2.38-5.7-2.38-9.07c0-3.37,0.8-6.39,2.4-9.07     c1.6-2.68,3.8-4.78,6.6-6.3c2.79-1.52,5.93-2.28,9.39-2.28c2.81,0,5.37,0.49,7.7,1.47c2.32,0.98,4.28,2.4,5.88,4.27l-4.12,3.87     c-2.48-2.68-5.54-4.02-9.17-4.02c-2.35,0-4.46,0.52-6.33,1.54c-1.86,1.03-3.32,2.46-4.36,4.29c-1.05,1.83-1.57,3.91-1.57,6.23     c0,2.32,0.52,4.4,1.57,6.23c1.04,1.83,2.5,3.26,4.36,4.29c1.86,1.03,3.97,1.54,6.33,1.54c3.63,0,6.68-1.36,9.17-4.07l4.12,3.92     c-1.6,1.86-3.57,3.28-5.91,4.27c-2.34,0.98-4.91,1.47-7.72,1.47C870.93,1276.93,867.8,1276.17,865.01,1274.65z"
   id="path1224" />
			<path
   d="M899.06,1242.11h6.37v28.93h17.95v5.39h-24.32V1242.11z"
   id="path1226" />
			<path
   d="M939.26,1274.65c-2.81-1.52-5.02-3.63-6.62-6.33c-1.6-2.7-2.4-5.71-2.4-9.05s0.8-6.35,2.4-9.05     c1.6-2.7,3.81-4.81,6.62-6.33c2.81-1.52,5.97-2.28,9.46-2.28c3.5,0,6.65,0.76,9.46,2.28c2.81,1.52,5.02,3.62,6.62,6.3     c1.6,2.68,2.4,5.7,2.4,9.07c0,3.37-0.8,6.39-2.4,9.07c-1.6,2.68-3.81,4.78-6.62,6.3c-2.81,1.52-5.97,2.28-9.46,2.28     C945.23,1276.93,942.07,1276.17,939.26,1274.65z M954.91,1269.79c1.83-1.03,3.27-2.47,4.32-4.32c1.05-1.85,1.57-3.91,1.57-6.2     c0-2.29-0.52-4.35-1.57-6.2c-1.05-1.85-2.48-3.28-4.32-4.32c-1.83-1.03-3.89-1.54-6.18-1.54c-2.29,0-4.35,0.52-6.18,1.54     c-1.83,1.03-3.27,2.47-4.31,4.32c-1.05,1.85-1.57,3.92-1.57,6.2c0,2.29,0.52,4.36,1.57,6.2c1.04,1.85,2.48,3.28,4.31,4.32     c1.83,1.03,3.89,1.54,6.18,1.54C951.01,1271.34,953.08,1270.82,954.91,1269.79z"
   id="path1228" />
			<path
   d="M982.56,1272.93c-2.65-2.66-3.97-6.48-3.97-11.45v-19.37h6.37v19.12c0,6.73,2.91,10.1,8.73,10.1     c5.79,0,8.68-3.37,8.68-10.1v-19.12h6.28v19.37c0,4.97-1.31,8.79-3.95,11.45c-2.63,2.66-6.32,4-11.06,4     C988.9,1276.93,985.21,1275.6,982.56,1272.93z"
   id="path1230" />
			<path
   d="M1028.79,1247.51h-11.37v-5.39h29.12v5.39h-11.37v28.93h-6.38V1247.51z"
   id="path1232" />
			<path
   d="M1081.65,1247.51h-11.37v-5.39h29.12v5.39h-11.37v28.93h-6.38V1247.51z"
   id="path1234" />
			<path
   d="M1115.19,1274.65c-2.81-1.52-5.02-3.63-6.62-6.33c-1.6-2.7-2.4-5.71-2.4-9.05s0.8-6.35,2.4-9.05     c1.6-2.7,3.81-4.81,6.62-6.33c2.81-1.52,5.97-2.28,9.46-2.28c3.5,0,6.65,0.76,9.46,2.28c2.81,1.52,5.02,3.62,6.62,6.3     c1.6,2.68,2.4,5.7,2.4,9.07c0,3.37-0.8,6.39-2.4,9.07c-1.6,2.68-3.81,4.78-6.62,6.3c-2.81,1.52-5.97,2.28-9.46,2.28     C1121.15,1276.93,1118,1276.17,1115.19,1274.65z M1130.83,1269.79c1.83-1.03,3.27-2.47,4.32-4.32c1.05-1.85,1.57-3.91,1.57-6.2     c0-2.29-0.52-4.35-1.57-6.2c-1.05-1.85-2.48-3.28-4.32-4.32c-1.83-1.03-3.89-1.54-6.18-1.54c-2.29,0-4.35,0.52-6.18,1.54     c-1.83,1.03-3.27,2.47-4.31,4.32c-1.05,1.85-1.57,3.92-1.57,6.2c0,2.29,0.52,4.36,1.57,6.2c1.04,1.85,2.48,3.28,4.31,4.32     c1.83,1.03,3.89,1.54,6.18,1.54C1126.94,1271.34,1129,1270.82,1130.83,1269.79z"
   id="path1236" />
			<path
   d="M1198.98,1271.09v5.34h-25.74v-34.32h25.06v5.34h-18.68v8.92h16.57v5.25h-16.57v9.46H1198.98z"
   id="path1238" />
			<path
   d="M1217.95,1247.51h-11.37v-5.39h29.12v5.39h-11.37v28.93h-6.38V1247.51z"
   id="path1240" />
			<path
   d="M1275.91,1242.11v34.32h-6.37v-14.71h-17.75v14.71h-6.37v-34.32h6.37v14.17h17.75v-14.17H1275.91z"
   id="path1242" />
			<path
   d="M1315.77,1271.09v5.34h-25.74v-34.32h25.06v5.34h-18.68v8.92h16.57v5.25h-16.57v9.46H1315.77z"
   id="path1244" />
			<path
   d="M1350.24,1276.44l-7.01-10.05c-0.29,0.03-0.74,0.05-1.32,0.05h-7.75v10h-6.37v-34.32h14.12c2.97,0,5.57,0.49,7.77,1.47     c2.21,0.98,3.9,2.39,5.07,4.22c1.18,1.83,1.77,4.01,1.77,6.52c0,2.58-0.63,4.81-1.89,6.67c-1.26,1.86-3.06,3.25-5.42,4.17     l7.89,11.28H1350.24z M1347.94,1249.27c-1.44-1.18-3.55-1.77-6.33-1.77h-7.45v13.68h7.45c2.78,0,4.88-0.6,6.33-1.79     c1.44-1.19,2.16-2.88,2.16-5.08C1350.09,1252.13,1349.37,1250.45,1347.94,1249.27z"
   id="path1246" />
			<path
   d="M1394.27,1271.09v5.34h-25.74v-34.32h25.06v5.34h-18.68v8.92h16.57v5.25h-16.57v9.46H1394.27z"
   id="path1248" />
			<path
   d="M1409.96,1272.93c-2.65-2.66-3.97-6.48-3.97-11.45v-19.37h6.37v19.12c0,6.73,2.91,10.1,8.73,10.1     c5.79,0,8.68-3.37,8.68-10.1v-19.12h6.28v19.37c0,4.97-1.31,8.79-3.95,11.45c-2.63,2.66-6.31,4-11.06,4     C1416.3,1276.93,1412.61,1275.6,1409.96,1272.93z"
   id="path1250" />
			<path
   d="M1481.39,1276.44l-0.05-22.75l-11.28,18.83h-2.84l-11.28-18.53v22.46h-6.08v-34.32h5.25l13.63,22.75l13.38-22.75h5.25     l0.05,34.32H1481.39z"
   id="path1252" />
		</g>
	</g>
	<g
   id="g1314">
		
		<g
   id="g1312">
			<g
   id="g1294">
				<path
   d="M682.22,957.43C734.08,829.75,859.7,743.47,1000,743.47c55.66,0,109.01,13.59,156.37,37.94      c-56.2-41.93-129.4-68.72-200.23-62.95c-66.62,5.42-130.06,32.67-182.77,73.28c-55.3,42.61-97.88,100.66-122.03,165.69H682.22z"
   id="path1286" />
				<path
   d="M1117.95,742.91c0.08,0.05,0.22,0.13,0.43,0.22c3.1,1.63,6.21,3.34,9.33,5.14l0.02-0.02      c22.74,12.96,80.12,49.04,123.07,104.49c4.79,5.11,9.41,10.37,13.88,15.78c21.85,26.43,39.86,56.32,53.09,88.9h30.89      c-24.15-65.03-66.72-123.08-122.03-165.69c-28.78-22.17-60.06-39.76-93.11-52.48c-2.98-1.15-5.97-2.26-8.98-3.33      c-20.1-7.15-40.84-12.53-62.03-16.1c17.69,5.49,36.3,12.96,55.36,23.05C1117.9,742.88,1117.93,742.89,1117.95,742.91z"
   id="path1288" />
				<path
   d="M747.58,957.43c51.29-90.89,148.91-150.1,256.6-150.1c47.79,0,93.59,11.67,134.24,32.57      c-8.43-4.33-16.06-11.34-24.28-16.24c-8.68-5.17-17.63-9.88-26.82-14.08c-18.27-8.35-37.46-14.7-57.14-18.74      c-40.64-8.34-82.79-6.29-122.39,6.11c-35.46,11.1-68.77,29.16-98.17,51.8c-37.72,29.07-68.55,66.5-90.02,108.67H747.58z"
   id="path1290" />
				<path
   d="M1105.44,806.85c0.07,0.04,0.19,0.11,0.37,0.19c2.67,1.4,5.33,2.87,8.01,4.41l0.01-0.01      c19.52,11.13,68.78,42.1,105.66,89.71c4.11,4.38,8.08,8.9,11.91,13.55c10.98,13.28,20.82,27.57,29.38,42.74h27.98      c-21.47-42.16-52.3-79.6-90.02-108.67c-24.7-19.03-51.56-34.13-79.94-45.05c-2.56-0.99-5.12-1.94-7.71-2.86      c-17.26-6.14-35.06-10.76-53.25-13.82c15.18,4.71,31.16,11.13,47.53,19.79C1105.4,806.82,1105.43,806.83,1105.44,806.85z"
   id="path1292" />
			</g>
			<path
   d="M730.35,1016.8l-16.45-8.5l16.38-19.75l0.2-0.12c0.65-0.4,1.04-1.12,1.02-1.88c-0.03-0.76-0.46-1.46-1.15-1.81     l-30.32-15.67c-0.61-0.31-1.33-0.31-1.94,0l-30.32,15.67c-0.68,0.35-1.12,1.05-1.14,1.81c-0.03,0.76,0.36,1.49,1.02,1.89     l0.2,0.12l16.38,19.75l-16.45,8.5c-0.68,0.35-1.12,1.04-1.15,1.81c-0.03,0.76,0.36,1.48,1.02,1.88l0.19,0.12l29.59,35.68     c0.4,0.48,1,0.76,1.63,0.76c0.63,0,1.23-0.28,1.63-0.76l29.59-35.68l0.19-0.12c0.65-0.4,1.04-1.12,1.02-1.88     C731.47,1017.84,731.03,1017.15,730.35,1016.8z M678.9,995.25l19.06,11.54c0.33,0.2,0.71,0.31,1.1,0.31s0.77-0.11,1.1-0.31     l19.06-11.54l-20.16,24.3L678.9,995.25z M699.06,1002.49l-25.98-15.73l25.98-13.43l25.98,13.43L699.06,1002.49z M697.42,1024.22     c0.4,0.49,1,0.77,1.63,0.77c0.63,0,1.23-0.28,1.63-0.77l10.44-12.58l13.92,7.19l-25.98,15.73l-25.98-15.73l13.92-7.19     L697.42,1024.22z M697.96,1038.85c0.33,0.2,0.71,0.31,1.1,0.31c0.39,0,0.77-0.11,1.1-0.31l19.06-11.54l-20.16,24.3l-20.16-24.3     L697.96,1038.85z"
   id="path1296" />
			<g
   id="g1310">
				<polygon
   points="1304.09,967.53 1276.9,1012.5 1304.09,1000.41     "
   id="polygon1298" />
				<polygon
   points="1276.9,1012.5 1304.09,1028.73 1304.09,1000.41     "
   id="polygon1300" />
				<polygon
   points="1304.09,967.53 1331.29,1012.5 1304.09,1000.41     "
   id="polygon1302" />
				<polygon
   points="1331.29,1012.5 1304.09,1028.73 1304.09,1000.41     "
   id="polygon1304" />
				<polygon
   points="1304.09,1033.74 1304.09,1055.75 1277.33,1018.03     "
   id="polygon1306" />
				<polygon
   points="1304.09,1033.74 1304.09,1055.75 1330.85,1018.03     "
   id="polygon1308" />
			</g>
		</g>
	<text
   xml:space="preserve"
   style="font-size:214.568px;line-height:1.25;font-family:Abel;-inkscape-font-specification:Abel;stroke-width:1.34104"
   x="275.43011"
   y="1570.0656"
   id="text1331"
   transform="scale(1.3410432,0.74568813)"><tspan
     sodipodi:role="line"
     id="tspan1329"
     x="275.43011"
     y="1570.0656"
     style="stroke-width:1.34104">CloutBridge</tspan></text></g>
</g>
</svg>
